<svg width="78" height="20" viewBox="0 0 78 20" fill="none" xmlns="http://www.w3.org/2000/svg">
<path d="M18 13C16.3431 13 15 11.6569 15 10C15 8.34315 16.3431 7 18 7C19.6569 7 21 8.34315 21 10C21 11.6569 19.6569 13 18 13Z" fill="#CFA764"/>
<path d="M9 12C7.89543 12 7 11.1046 7 10C7 8.89543 7.89543 8 9 8C10.1046 8 11 8.89543 11 10C11 11.1046 10.1046 12 9 12Z" fill="#CFA764"/>
<path d="M1.5 11.5C0.671573 11.5 0 10.8284 0 10C0 9.17157 0.671573 8.5 1.5 8.5C2.32843 8.5 3 9.17157 3 10C3 10.8284 2.32843 11.5 1.5 11.5Z" fill="#CFA764"/>
<path d="M31.2848 9.62031L33.8704 8.86094C35.7916 8.29521 37.2952 6.79165 37.8609 4.87043L38.6203 2.28477C38.7304 1.90508 39.2696 1.90508 39.3797 2.28477L40.1391 4.87043C40.7048 6.79165 42.2084 8.29521 44.1296 8.86094L46.7152 9.62031C47.0949 9.73042 47.0949 10.2696 46.7152 10.3797L44.1296 11.1391C42.2084 11.7048 40.7048 13.2084 40.1391 15.1296L39.3797 17.7152C39.2696 18.0949 38.7304 18.0949 38.6203 17.7152L37.8609 15.1296C37.2952 13.2084 35.7916 11.7048 33.8704 11.1391L31.2848 10.3797C30.9051 10.2696 30.9051 9.73042 31.2848 9.62031Z" fill="#CFA764"/>
<path d="M60 13C61.6569 13 63 11.6569 63 10C63 8.34315 61.6569 7 60 7C58.3431 7 57 8.34315 57 10C57 11.6569 58.3431 13 60 13Z" fill="#CFA764"/>
<path d="M69 12C70.1046 12 71 11.1046 71 10C71 8.89543 70.1046 8 69 8C67.8954 8 67 8.89543 67 10C67 11.1046 67.8954 12 69 12Z" fill="#CFA764"/>
<path d="M76.5 11.5C77.3284 11.5 78 10.8284 78 10C78 9.17157 77.3284 8.5 76.5 8.5C75.6716 8.5 75 9.17157 75 10C75 10.8284 75.6716 11.5 76.5 11.5Z" fill="#CFA764"/>
</svg>
