<svg width="34" height="15" viewBox="0 0 34 15" fill="none" xmlns="http://www.w3.org/2000/svg">
<path d="M1.5 8.70019C0.671573 8.70019 0 8.02862 0 7.20019C0 6.37177 0.671573 5.7002 1.5 5.7002C2.32843 5.7002 3 6.37177 3 7.20019C3 8.02862 2.32843 8.70019 1.5 8.70019Z" fill="#CFA764"/>
<path d="M10.0563 6.85828L12.3834 6.17485C14.1125 5.66569 15.4657 4.31248 15.9749 2.58339L16.6583 0.256289C16.7574 -0.0854295 17.2427 -0.0854295 17.3418 0.256289L18.0252 2.58339C18.5344 4.31248 19.8876 5.66569 21.6167 6.17485L23.9438 6.85828C24.2855 6.95738 24.2855 7.44262 23.9438 7.54172L21.6167 8.22515C19.8876 8.73431 18.5344 10.0875 18.0252 11.8166L17.3418 14.1437C17.2427 14.4854 16.7574 14.4854 16.6583 14.1437L15.9749 11.8166C15.4657 10.0875 14.1125 8.73431 12.3834 8.22515L10.0563 7.54172C9.71462 7.44262 9.71462 6.95738 10.0563 6.85828Z" fill="#CFA764"/>
<path d="M32.5 8.70019C33.3284 8.70019 34 8.02862 34 7.20019C34 6.37177 33.3284 5.7002 32.5 5.7002C31.6716 5.7002 31 6.37177 31 7.20019C31 8.02862 31.6716 8.70019 32.5 8.70019Z" fill="#CFA764"/>
</svg>
