<?xml version="1.0" encoding="UTF-8"?><svg id="b" xmlns="http://www.w3.org/2000/svg" xmlns:xlink="http://www.w3.org/1999/xlink" viewBox="0 0 404.93 180.18"><defs><mask id="d" x="2.68" y="5.59" width="165.1" height="172.73" maskUnits="userSpaceOnUse"><g id="e"><path d="M79.12,174.59c40.6,0,73.51-37.83,73.51-84.5S119.72,5.59,79.12,5.59,5.61,43.42,5.61,90.09s32.91,84.5,73.51,84.5Z" fill="#fff"/></g></mask></defs><g id="c"><path d="M182.92,179.8v-13.2h8.57v2.27h-5.88v3.15h5.39v2.23h-5.39v3.29h5.88v2.27h-8.6.03Z" fill="#b98131"/><path d="M201.8,179.8l-4.63-13.2h2.99l2.14,6.37c.26.79.52,1.67.79,2.66.26.95.56,2,.85,3.15h-.62c.3-1.15.56-2.2.82-3.15.26-.95.49-1.84.76-2.63l2.04-6.37h2.96l-4.53,13.2h-3.51l-.03-.03Z" fill="#b98131"/><path d="M215.79,179.8v-13.2h8.57v2.27h-5.88v3.15h5.39v2.23h-5.39v3.29h5.88v2.27h-8.6.03Z" fill="#b98131"/><path d="M230.77,179.8v-13.2h2.99l4.2,6.7c.2.33.4.66.59,1.05.23.39.43.82.66,1.28.23.46.46.99.69,1.54l-.3.16c-.03-.46-.07-.99-.1-1.54,0-.56-.07-1.08-.07-1.58v-7.62h2.76v13.2h-2.99l-3.81-6.08c-.26-.43-.49-.82-.75-1.25-.23-.43-.49-.89-.76-1.41-.26-.53-.56-1.12-.92-1.81l.36-.07c.03.66.07,1.25.1,1.84,0,.59.07,1.12.07,1.58v7.23h-2.76l.03-.03Z" fill="#b98131"/><path d="M247.65,168.86v-2.27h10.77v2.27h-4.04v10.94h-2.73v-10.94h-4.04.03Z" fill="#b98131"/><path d="M269,180c-1.09,0-2-.16-2.79-.49-.79-.33-1.41-.82-1.84-1.48-.43-.66-.66-1.45-.69-2.37h2.63c0,.46.17.82.4,1.15.23.3.52.56.92.69.39.16.82.23,1.35.23s.92-.07,1.28-.2c.36-.13.66-.33.85-.59.2-.26.3-.56.3-.89,0-.3-.1-.56-.26-.75-.16-.2-.43-.39-.75-.53-.33-.13-.76-.26-1.25-.39l-1.44-.36c-1.15-.26-2.07-.69-2.69-1.28-.62-.59-.95-1.35-.95-2.33,0-.79.23-1.51.66-2.1.43-.59,1.02-1.05,1.77-1.41.75-.33,1.61-.49,2.56-.49s1.84.16,2.56.49c.72.33,1.31.82,1.71,1.41.39.59.62,1.31.62,2.1h-2.59c-.03-.56-.26-.99-.69-1.28-.43-.3-.95-.46-1.64-.46-.46,0-.85.07-1.18.2-.33.13-.59.33-.75.56-.16.23-.26.49-.26.79s.1.56.3.79c.2.2.43.39.75.53.33.13.69.26,1.12.36l1.22.3c.59.13,1.12.3,1.61.53s.92.49,1.25.79c.36.3.62.66.82,1.08.2.43.3.89.3,1.45,0,.82-.2,1.51-.62,2.1-.39.59-.99,1.05-1.74,1.38-.76.33-1.68.49-2.76.49h-.03Z" fill="#b98131"/><path d="M297.8,180c-.92,0-1.71-.16-2.36-.49-.66-.33-1.18-.75-1.51-1.31-.36-.56-.53-1.18-.53-1.87,0-.53.1-.99.3-1.38s.49-.76.85-1.12c.36-.33.82-.69,1.31-1.05l2.53-1.68c.2-.13.36-.26.49-.43.13-.17.26-.3.33-.49.07-.16.13-.36.13-.52,0-.3-.1-.56-.33-.79-.23-.23-.53-.33-.92-.33-.26,0-.49.07-.69.16-.2.1-.36.23-.46.43s-.17.39-.17.66c0,.3.07.56.2.85.13.26.33.56.59.89.26.33.56.66.89,1.08l6.24,7.19h-2.79l-5.19-5.84c-.39-.43-.72-.89-1.08-1.31-.33-.43-.62-.89-.85-1.35-.23-.46-.33-.99-.33-1.54,0-.62.13-1.22.43-1.71.3-.49.72-.92,1.25-1.18.52-.3,1.15-.43,1.87-.43s1.31.13,1.81.43c.49.3.89.66,1.18,1.12.26.46.43.99.43,1.58,0,.39-.07.79-.2,1.15-.13.36-.33.69-.59,1.02-.26.3-.56.59-.95.89l-2.69,1.94c-.36.26-.62.53-.82.79-.2.26-.3.56-.3.92,0,.33.07.62.23.85.16.23.39.43.69.59.3.13.62.2.99.2.49,0,.95-.1,1.41-.33.46-.23.89-.53,1.25-.92.36-.39.66-.85.89-1.41.23-.56.33-1.15.33-1.81h2.2c0,.79-.1,1.48-.26,2.14-.16.62-.39,1.18-.72,1.67-.3.49-.66.89-1.09,1.18l-.69.43c-.49.39-1.02.69-1.64.89-.62.2-1.22.3-1.84.3l.2-.03Z" fill="#b98131"/><path d="M325.29,166.57v13.2h-2.73v-13.2h2.73ZM327.23,179.8h-3.42v-2.33h3.28c.85,0,1.58-.17,2.14-.46.59-.3,1.02-.79,1.31-1.41.3-.62.43-1.45.43-2.43s-.13-1.77-.43-2.4-.72-1.12-1.28-1.41c-.56-.3-1.28-.46-2.13-.46h-3.38v-2.33h3.51c1.31,0,2.46.26,3.42.79.95.53,1.68,1.28,2.2,2.27.53.99.79,2.17.79,3.51s-.26,2.56-.76,3.55c-.53.99-1.25,1.74-2.23,2.27-.95.53-2.13.79-3.45.79v.07Z" fill="#b98131"/><path d="M339.64,179.8v-13.2h9v2.27h-6.27v3.15h5.81v2.23h-5.81v3.28h6.27v2.27h-9ZM343.16,165.35l1.31-2.76h2.5l-1.94,2.76h-1.87Z" fill="#b98131"/><path d="M360.5,179.96c-1.18,0-2.23-.26-3.15-.82-.92-.53-1.67-1.31-2.2-2.33-.53-1.02-.79-2.23-.79-3.64s.26-2.66.82-3.68c.53-1.02,1.28-1.77,2.2-2.33.92-.56,1.97-.82,3.15-.82.76,0,1.48.1,2.1.33.66.2,1.22.52,1.74.92.49.39.92.92,1.25,1.48.33.59.52,1.25.62,2h-2.72c-.07-.36-.2-.69-.36-.99-.16-.3-.39-.53-.62-.72-.26-.2-.56-.36-.85-.46s-.69-.16-1.05-.16c-.69,0-1.31.16-1.84.53-.53.36-.92.85-1.22,1.51-.3.66-.43,1.44-.43,2.36s.13,1.74.43,2.4c.3.66.69,1.15,1.22,1.48.53.33,1.12.49,1.84.49.4,0,.72-.07,1.05-.16.33-.1.62-.26.89-.46.26-.2.46-.43.66-.72.16-.3.3-.62.36-.99h2.73c-.1.66-.26,1.25-.56,1.81-.3.56-.69,1.08-1.18,1.51-.49.43-1.08.79-1.74,1.02-.66.23-1.41.36-2.23.36l-.1.1Z" fill="#b98131"/><path d="M377.9,179.96c-1.18,0-2.23-.26-3.15-.82-.92-.53-1.67-1.31-2.2-2.33-.53-1.02-.82-2.23-.82-3.64s.26-2.66.82-3.68c.53-1.02,1.28-1.77,2.2-2.33.92-.53,1.97-.82,3.15-.82s2.23.26,3.15.82c.92.52,1.67,1.31,2.2,2.33.53,1.02.82,2.23.82,3.68s-.26,2.63-.82,3.64c-.53,1.02-1.28,1.77-2.2,2.33-.92.53-1.97.79-3.15.79v.03ZM377.9,177.57c.69,0,1.28-.17,1.81-.49.53-.33.92-.82,1.22-1.48.3-.66.43-1.44.43-2.4s-.13-1.74-.43-2.4c-.3-.66-.69-1.15-1.22-1.48-.53-.33-1.12-.49-1.81-.49s-1.28.16-1.81.53c-.52.33-.92.82-1.22,1.48-.3.66-.43,1.45-.43,2.4s.13,1.74.43,2.4c.3.66.69,1.15,1.22,1.48.53.33,1.12.53,1.81.53v-.07Z" fill="#b98131"/><path d="M390.02,179.8v-13.2h5.19c.99,0,1.84.16,2.56.53.72.36,1.25.85,1.64,1.51.36.66.56,1.41.56,2.27s-.2,1.61-.59,2.27c-.39.66-.95,1.12-1.64,1.45-.72.33-1.58.49-2.59.49h-3.48v-2.2h3.15c.53,0,.99-.07,1.31-.23.36-.16.62-.39.79-.69s.26-.66.26-1.08-.1-.82-.26-1.12-.46-.53-.79-.69c-.36-.17-.79-.23-1.35-.23h-2.04v10.97h-2.73v-.03ZM397.41,179.8l-3.19-6.01h2.92l3.25,6.01h-2.99Z" fill="#b98131"/><path d="M288.21,21.27s-.2-.07-.23-.2c-.17-.56-.66-2.43-1.54-4.86-1.48-4.04-2.96-5.81-2.36-8.87.46-2.36,3.42-6.04,4.11-6.83.07-.07.2-.07.26,0,.66.79,3.65,4.47,4.11,6.83.59,3.09-.89,4.83-2.36,8.87-.89,2.4-1.38,4.27-1.54,4.86,0,.1-.13.2-.23.2h-.2Z" fill="#ca902f"/><path d="M288.28,29.75c1.63,0,2.96-1.32,2.96-2.96s-1.32-2.96-2.96-2.96-2.96,1.32-2.96,2.96,1.32,2.96,2.96,2.96Z" fill="#ca902f"/><path d="M291.69,21.24s-.26,0-.23-.13c.49-1.45,1.68-4.93,2.07-6.63.49-2.2.72-3.51,2.07-4.37,1.35-.85,3.02-.23,3.51,1.28.33.99.2,2-.56,2.86-.36.39-.75.69-1.18,1.02-.49.39-.95.79-1.41,1.18-.46.39-.89.85-1.31,1.31-.2.23-.46.49-.72.79-.79.89-1.71,2.04-2.27,2.69h.03Z" fill="#ca902f"/><path d="M293.79,23.31s0,.26.13.2c1.45-.53,7.26-2.5,8.9-2.99,1.58-.49,3.09-1.05,3.64-2.79.39-1.22-.16-2.59-1.25-3.22-.79-.46-1.81-.49-2.59-.03-.17.1-.33.23-.49.39-.49.46-.85,1.08-1.21,1.64-.49.82-.95,1.45-1.64,2.13-.72.72-1.77,1.51-2.53,2.2-.89.79-2.27,1.9-2.92,2.46h-.03Z" fill="#ca902f"/><path d="M284.86,21.24s.26,0,.23-.13c-.49-1.45-1.67-4.93-2.07-6.63-.49-2.2-.72-3.51-2.07-4.37-1.35-.85-3.02-.23-3.51,1.28-.33.99-.2,2,.56,2.86.36.39.75.69,1.18,1.02.49.39.95.79,1.41,1.18.46.39.89.85,1.31,1.31.2.23.46.49.72.79.79.89,1.71,2.04,2.27,2.69h-.03Z" fill="#ca902f"/><path d="M282.79,23.31s0,.26-.13.2c-1.44-.53-7.26-2.5-8.9-2.99-1.58-.49-3.09-1.05-3.64-2.79-.39-1.22.16-2.59,1.25-3.22.79-.46,1.81-.49,2.59-.03.17.1.33.23.49.39.49.46.85,1.08,1.22,1.64.49.82.95,1.45,1.64,2.13.72.72,1.77,1.51,2.53,2.2.89.79,2.27,1.9,2.92,2.46h.03Z" fill="#ca902f"/><path d="M288.21,21.27s-.2-.07-.23-.2c-.17-.56-.66-2.43-1.54-4.86-1.48-4.04-2.96-5.81-2.36-8.87.46-2.36,3.42-6.04,4.11-6.83.07-.07.2-.07.26,0,.66.79,3.65,4.47,4.11,6.83.59,3.09-.89,4.83-2.36,8.87-.89,2.4-1.38,4.27-1.54,4.86,0,.1-.13.2-.23.2h-.2Z" fill="#ca902f"/><path d="M291.69,21.24s-.26,0-.23-.13c.49-1.45,1.68-4.93,2.07-6.63.49-2.2.72-3.51,2.07-4.37,1.35-.85,3.02-.23,3.51,1.28.33.99.2,2-.56,2.86-.36.39-.75.69-1.18,1.02-.49.39-.95.79-1.41,1.18-.46.39-.89.85-1.31,1.31-.2.23-.46.49-.72.79-.79.89-1.71,2.04-2.27,2.69h.03Z" fill="#ca902f"/><path d="M293.79,23.31s0,.26.13.2c1.45-.53,7.26-2.5,8.9-2.99,1.58-.49,3.09-1.05,3.64-2.79.39-1.22-.16-2.59-1.25-3.22-.79-.46-1.81-.49-2.59-.03-.17.1-.33.23-.49.39-.49.46-.85,1.08-1.21,1.64-.49.82-.95,1.45-1.64,2.13-.72.72-1.77,1.51-2.53,2.2-.89.79-2.27,1.9-2.92,2.46h-.03Z" fill="#ca902f"/><path d="M284.86,21.24s.26,0,.23-.13c-.49-1.45-1.67-4.93-2.07-6.63-.49-2.2-.72-3.51-2.07-4.37-1.35-.85-3.02-.23-3.51,1.28-.33.99-.2,2,.56,2.86.36.39.75.69,1.18,1.02.49.39.95.79,1.41,1.18.46.39.89.85,1.31,1.31.2.23.46.49.72.79.79.89,1.71,2.04,2.27,2.69h-.03Z" fill="#ca902f"/><path d="M282.79,23.31s0,.26-.13.2c-1.44-.53-7.26-2.5-8.9-2.99-1.58-.49-3.09-1.05-3.64-2.79-.39-1.22.16-2.59,1.25-3.22.79-.46,1.81-.49,2.59-.03.17.1.33.23.49.39.49.46.85,1.08,1.22,1.64.49.82.95,1.45,1.64,2.13.72.72,1.77,1.51,2.53,2.2.89.79,2.27,1.9,2.92,2.46h.03Z" fill="#ca902f"/><path d="M288.37,32.31s.2.07.23.2c.16.56.66,2.43,1.54,4.86,1.48,4.04,2.96,5.81,2.37,8.87-.46,2.36-3.42,6.04-4.11,6.83-.07.07-.2.07-.26,0-.66-.79-3.64-4.47-4.11-6.83-.59-3.09.89-4.83,2.37-8.87.89-2.4,1.38-4.27,1.54-4.86,0-.1.13-.2.23-.2h.2Z" fill="#ca902f"/><path d="M284.86,32.34s.26,0,.23.13c-.49,1.45-1.67,4.93-2.07,6.63-.49,2.2-.72,3.51-2.07,4.37-1.35.85-3.02.23-3.51-1.28-.33-.99-.2-2,.56-2.86.36-.39.75-.69,1.18-1.02.49-.39.95-.79,1.41-1.18.46-.39.89-.85,1.31-1.31.2-.23.46-.49.72-.79.79-.89,1.71-2.04,2.27-2.69h-.03Z" fill="#ca902f"/><path d="M282.79,30.3s0-.26-.13-.2c-1.44.53-7.26,2.5-8.9,2.99-1.58.49-3.09,1.05-3.64,2.79-.39,1.22.16,2.59,1.25,3.22.79.46,1.81.49,2.59.03.17-.1.33-.23.49-.39.49-.46.85-1.08,1.22-1.64.49-.82.95-1.45,1.64-2.13.72-.72,1.77-1.51,2.53-2.2.89-.79,2.27-1.9,2.92-2.46h.03Z" fill="#ca902f"/><path d="M291.69,32.34s-.26,0-.23.13c.49,1.45,1.68,4.93,2.07,6.63.49,2.2.72,3.51,2.07,4.37,1.35.85,3.02.23,3.51-1.28.33-.99.2-2-.56-2.86-.36-.39-.75-.69-1.18-1.02-.49-.39-.95-.79-1.41-1.18-.46-.39-.89-.85-1.31-1.31-.2-.23-.46-.49-.72-.79-.79-.89-1.71-2.04-2.27-2.69h.03Z" fill="#ca902f"/><path d="M293.79,30.3s0-.26.13-.2c1.45.53,7.26,2.5,8.9,2.99,1.58.49,3.09,1.05,3.64,2.79.39,1.22-.16,2.59-1.25,3.22-.79.46-1.81.49-2.59.03-.17-.1-.33-.23-.49-.39-.49-.46-.85-1.08-1.21-1.64-.49-.82-.95-1.45-1.64-2.13-.72-.72-1.77-1.51-2.53-2.2-.89-.79-2.27-1.9-2.92-2.46h-.03Z" fill="#ca902f"/><path d="M288.37,32.31s.2.07.23.2c.16.56.66,2.43,1.54,4.86,1.48,4.04,2.96,5.81,2.37,8.87-.46,2.36-3.42,6.04-4.11,6.83-.07.07-.2.07-.26,0-.66-.79-3.64-4.47-4.11-6.83-.59-3.09.89-4.83,2.37-8.87.89-2.4,1.38-4.27,1.54-4.86,0-.1.13-.2.23-.2h.2Z" fill="#ca902f"/><path d="M284.86,32.34s.26,0,.23.13c-.49,1.45-1.67,4.93-2.07,6.63-.49,2.2-.72,3.51-2.07,4.37-1.35.85-3.02.23-3.51-1.28-.33-.99-.2-2,.56-2.86.36-.39.75-.69,1.18-1.02.49-.39.95-.79,1.41-1.18.46-.39.89-.85,1.31-1.31.2-.23.46-.49.72-.79.79-.89,1.71-2.04,2.27-2.69h-.03Z" fill="#ca902f"/><path d="M282.79,30.3s0-.26-.13-.2c-1.44.53-7.26,2.5-8.9,2.99-1.58.49-3.09,1.05-3.64,2.79-.39,1.22.16,2.59,1.25,3.22.79.46,1.81.49,2.59.03.17-.1.33-.23.49-.39.49-.46.85-1.08,1.22-1.64.49-.82.95-1.45,1.64-2.13.72-.72,1.77-1.51,2.53-2.2.89-.79,2.27-1.9,2.92-2.46h.03Z" fill="#ca902f"/><path d="M291.69,32.34s-.26,0-.23.13c.49,1.45,1.68,4.93,2.07,6.63.49,2.2.72,3.51,2.07,4.37,1.35.85,3.02.23,3.51-1.28.33-.99.2-2-.56-2.86-.36-.39-.75-.69-1.18-1.02-.49-.39-.95-.79-1.41-1.18-.46-.39-.89-.85-1.31-1.31-.2-.23-.46-.49-.72-.79-.79-.89-1.71-2.04-2.27-2.69h.03Z" fill="#ca902f"/><path d="M293.79,30.3s0-.26.13-.2c1.45.53,7.26,2.5,8.9,2.99,1.58.49,3.09,1.05,3.64,2.79.39,1.22-.16,2.59-1.25,3.22-.79.46-1.81.49-2.59.03-.17-.1-.33-.23-.49-.39-.49-.46-.85-1.08-1.21-1.64-.49-.82-.95-1.45-1.64-2.13-.72-.72-1.77-1.51-2.53-2.2-.89-.79-2.27-1.9-2.92-2.46h-.03Z" fill="#ca902f"/><path d="M282.76,26.89s-.07.2-.2.23c-.56.16-2.43.66-4.86,1.54-4.04,1.48-5.81,2.96-8.87,2.36-2.36-.46-6.04-3.42-6.83-4.11-.07-.07-.07-.2,0-.26.79-.66,4.47-3.65,6.83-4.11,3.09-.59,4.83.89,8.87,2.36,2.4.89,4.27,1.38,4.86,1.54.1,0,.2.13.2.23v.2Z" fill="#ca902f"/><path d="M293.83,26.89s.07.2.2.23c.56.16,2.43.66,4.86,1.54,4.04,1.48,5.81,2.96,8.87,2.36,2.37-.46,6.04-3.42,6.83-4.11.07-.07.07-.2,0-.26-.79-.66-4.47-3.65-6.83-4.11-3.09-.59-4.83.89-8.87,2.36-2.4.89-4.27,1.38-4.86,1.54-.1,0-.2.13-.2.23v.2Z" fill="#ca902f"/><path d="M244.4,62.19c1.51,0,3.02.23,4.3,1.12,2.59,1.77,3.12,4.96,2.86,7.85-.16,1.71-.59,3.35-1.22,4.93-3.51,9.13-21.94,56.62-21.94,56.62,0,0-20-49.39-24.6-60.66-.43-1.02-.95-2.07-1.22-3.15-.56-2.53.46-5.02,2.89-6.04,1.25-.53,2.59-.69,3.65-.69v-1.97h-31.2v1.97c1.68,0,5.88.69,8.31,4.17.69.99,2,3.68,3.65,7.23l32.94,76.06h3.22c.1-.3.23-.59.33-.89.33-.82.62-1.67.95-2.5.49-1.28.99-2.59,1.48-3.88.66-1.67,1.28-3.38,1.94-5.06.75-2,1.54-3.97,2.3-5.98.85-2.23,1.71-4.47,2.56-6.67.92-2.4,1.84-4.76,2.76-7.16.95-2.46,1.9-4.93,2.86-7.39.95-2.46,1.9-4.93,2.86-7.42.92-2.4,1.87-4.79,2.79-7.19.89-2.23,1.74-4.5,2.63-6.73.79-2.04,1.58-4.04,2.36-6.08.69-1.74,1.35-3.45,2.04-5.16,1.54-3.91,2.99-7.95,5.65-11.26.82-1.02,1.81-1.94,2.92-2.66,1.12-.72,2.63-1.41,4.01-1.41h.39v-1.97h-22.53v1.97h.07ZM375.01,147.68v1.97h29.92v-1.97c-3.28,0-6.5-1.67-7.68-4.89-.72-1.97-.79-3.88-.79-5.98v-60.53c0-2.59-.13-5.25.59-7.78.56-1.87,1.41-3.51,3.15-4.76,1.05-.76,3.35-1.54,4.63-1.54v-1.97h-20.36l-26.31,53.73-28.74-53.73h-19.74v1.97c1.94,0,3.45.79,4.79,1.9,1.31,1.08,2.37,2.46,3.02,4.01.72,1.67.89,3.45.95,5.22.03,1.12.03,2.2.03,3.32v60.2c0,2.43-.13,5.09-1.61,7.13-1.28,1.74-3.25,2.86-5.32,3.38-.72.16-1.45.3-2.17.33h-.39v1.97h22.92v-1.97c-.89,0-2-.26-3.09-.59-3.05-.99-5.68-3.19-6.21-6.5-.23-1.41-.26-2.33-.26-3.78v-64.11l30.54,58.56h1.58l29.33-61.55v66.87c0,2.17-.2,4.4-1.08,6.4-1.38,3.05-4.4,4.73-7.72,4.73v-.03ZM273.93,60.22v1.97c2.04,0,3.68.76,4.96,1.74,1.61,1.25,2.5,2.99,2.82,4.79.26,1.41.33,2.89.33,4.3v63.75c0,2.04-.07,4.17-.85,6.08-1.18,2.89-4.11,4.79-7.19,4.79v1.97h28.7v-1.97c-3.09,0-6.01-1.9-7.19-4.79-.79-1.9-.85-4.04-.85-6.08v-63.75c0-1.45.07-2.89.33-4.3.33-1.84,1.18-3.55,2.82-4.79,1.28-.99,2.92-1.74,4.96-1.74v-1.97h-28.84Z" fill="#7a2f4a"/><path d="M79.12,174.59c40.6,0,73.51-37.83,73.51-84.5S119.72,5.59,79.12,5.59,5.61,43.42,5.61,90.09s32.91,84.5,73.51,84.5Z" fill="#a61f2a"/><g mask="url(#d)"><path d="M89.18,178.32c-.43,0-.87-.09-1.26-.26-.39.17-.82.26-1.28.26H5.94c-.95,0-1.86-.43-2.49-1.15-.61-.74-.89-1.71-.72-2.64.39-2.21,1-5.7,1.78-10.27,1.41-8.28,2.06-11.68,3.12-15.52,1.19-4.29,3.51-8.19,7.35-12.29,3.19-3.42,7.15-5.96,10.32-8,.59-.37,1.13-.74,1.65-1.06l2.19-1.43c3.08-2.02,6.89-4.51,9.28-6.26.78-.56,1.58-1.19,2.43-1.84,1.99-1.54,4.2-3.25,6.44-4.62.02-1.69.11-4.16.28-5.7.33-2.82.65-4.64,3.21-6.81,1.02-.84,1.89-1.39,2.51-1.69.19-.52.48-.91.74-1.19.52-.56,1.17-.91,1.91-1.11.39-.11.91-.39.91-.87s-.59-1.06-.74-1.54l-.11-.37c-.35-.09-.69-.22-1-.43-.48-.3-1.04-.82-1.37-1.63-.46-.52-.74-1.17-.78-1.86-.04-.09-.09-.19-.13-.28l-.11-.15c-.37-.3-.65-.67-.85-1.08-.09-.2-.17-.39-.22-.56-1.21.8-2.54,1.24-3.88,1.24-1.97,0-3.73-.95-4.85-2.62-.78-1.19-1.17-2.51-1.13-3.99-.09-.17-.22-.39-.35-.61-.54-1-1.24-2.23-1.65-3.55l-1.24-3.94c-.76-2.38-.91-6.48.13-9.19.69-1.82,2.23-3.08,4.07-3.42-.8-2.41-1.43-4.88-1.93-7.52-.22-1.21-.17-2.19-.15-2.82,0-.17.02-.35,0-.52-.3-.52-.41-.95-.39-1.56.04-1.32.26-2.51.46-3.68l.15-.91c.09-.54.24-1.08.43-1.67.17-.48.37-.98.59-1.45.11-.24.22-.5.3-.74.04-.11.09-.2.11-.28,0-.41.04-1.06.33-1.73.13-.33.28-.65.43-.95.04-.09.09-.17.13-.28.02-.43.13-.87.35-1.26l1-1.97c.56-1.13,1.26-2.12,1.84-2.97.09-.13.2-.26.26-.39.04-.33.13-.67.26-.98.13-.3.3-.59.5-.85.09-.22.17-.43.3-.65.98-1.56,2.36-3.42,4.44-4.03h.06c.11-.09.19-.17.3-.26.26-.22.52-.43.78-.63,1.99-1.5,3.94-2.49,5.94-3.03l.95-.24c.17-.04.26-.09.33-.11.5-.26,1-.48,1.5-.67.48-.2.98-.35,1.5-.5.39-.11.78-.17,1.19-.17.19,0,.37,0,.59.02.41,0,.95-.15,1.34-.26.63-.2,1.26-.3,1.99-.37.26,0,.5-.02.76-.02,0,0,.87-.02.89-.02h.37c1.8,0,3.34.15,4.81.43l1.69.33c.63.13,1.26.28,1.89.46l.54.15c.76.22,1.71.48,2.64,1.02.26.15.43.26.61.33.59,0,1.32.17,2.06.43.37.13.69.33.98.56l1.99.85c1.63.69,2.88,1.47,3.92,2.43l2.8,2.6c.28.26.52.56.74.87.46.37.85.87,1.08,1.41.5.46,1.17,1.15,1.63,2.15.13.28.2.56.24.85.65.74,1.32,1.6,1.89,2.6.24.41.39.89.41,1.34.28.61.54,1.21.76,1.78.2.52.26,1.08.2,1.6l.61,1.8c.39,1.15.82,2.43.98,3.92.02.3,0,.61-.04.91.13.5.22,1,.28,1.47.39-.09.8-.13,1.21-.13,1.75,0,3.4.76,4.62,2.17.87,1,1.34,2.04,1.65,2.84,1.15,3.01,1.56,6.24,1.24,9.56-.32,3.27-.82,6.37-1.54,9.45-.8,3.49-3.75,5.94-7.15,5.94-.33,0-.67-.02-1-.07-.15,0-.3-.04-.46-.09l-.37,1.15c-.13.54-.3,1.06-.52,1.58-.15.39-.32.78-.52,1.15l-.3,1.02c-.15.52-.43.98-.8,1.34,0,.54-.02,1.04-.11,1.54.22-.04.43-.06.65-.06.2,0,.39,0,.61.06,1.39.26,2.45,1.39,2.62,2.8,0,0,.26,2.04.39,2.97l.24,1.63c.39.11.78.24,1.19.39,2.56.95,3.94,2.32,4.85,3.4.35.43.65.87.87,1.28l.33.15c.3.17.63.35.93.52.28.17.54.33.8.48.41.24.85.48,1.24.76.24-.04.48-.07.65-.07.63,0,1.1.15,1.36.22l4.66,1.3,17.49,6.07,4.25,1.76.67.3c.28.13.54.28.8.46l.37.24c.17.11.32.24.45.39.37.13.69.3.95.5.35.22.65.5.91.82h.13c.41,0,.82.09,1.21.24l.85.35s.17.09.26.13c.39.02.8.11,1.21.26l3.53,1.24c.69.24,1.28.54,1.8.93.8.39,1.5,1,2.02,1.73.39.56.67,1.19.89,1.95,3.6,2.21,6.68,5.59,8.71,8.11.48.58.71,1.3.71,2.04v45.62c0,1.8-1.45,3.25-3.25,3.25h-75.44.09Z" fill="#8e1c2f"/><path d="M155.28,121.12c-.24-.13-.54-.32-.78-.43-.02,0-.07-.02-.09-.04v-.04c0-.3-.04-.61-.13-.89-.11-.41-.26-.85-.5-1.21-.26-.37-.63-.65-1.06-.8-.32-.32-.71-.52-1.13-.67l-3.53-1.24c-.32-.11-.52-.11-.85,0-.91.26-1.76.63-2.45,1.28-.61.56-1.1,1.13-1.54,1.82-.8,1.26-1.43,2.54-2.06,3.9l-2.4,6.13-1.5,4.4c-3.25,9.84-6.29,19.72-9.15,29.71l-3.14,10.92c-.04.17-.09.26-.07.39h-.85,39.47v-45.62c-2.21-2.73-5.18-5.85-8.28-7.61h.02Z" fill="#fff0df"/><path d="M145.42,115.06c-.13-.04-.28-.15-.37-.19-.17-.09-.35-.17-.54-.22h-.37c-1.5.11-2.58,1.13-3.38,2.3-.24.35-.48.71-.71,1.06-1.15,1.99-2.1,4.05-2.95,6.22l-3.01,8.56-1.95,6.05-1.37,4.4-4.7,15.65-1.54,5.2-3.21,11.01c-.04.17-.09.28-.09.43h-.82,1.34c0,.07-.04.13-.04.22h-.82,1.86l2.75-9.56,1.06-3.6,3.94-13.24,2.15-6.98,2.56-7.93,3.18-9.06c.5-1.41,1.08-2.77,1.73-4.12.67-1.36,1.41-2.73,2.32-3.94.74-1.02,1.67-1.82,2.95-2.08.13,0,.13-.09,0-.13l.02-.04Z" fill="#fff"/><path d="M64.63,58.12l.91.35s.17-.13.15-.22c0-.11-.11-.22-.22-.28-.72-.48-1.89-.87-2.73-1.04l-.74-.11c-.26-.04-.5-.04-.76,0h-.28l-.35.04-.69.09c-.28.04-.54.07-.8.15l-.56.2c-.52.19-1.02.48-1.47.8-.33.22-.63.43-.93.67-.09.06-.17.11-.2.22l.3-.24c.5-.39,1.04-.74,1.65-.98.85-.33,1.58-.5,2.51-.56h.89c.43.04.87.11,1.3.24l2.02.67Z" fill="#fff0df"/><path d="M59.84,58.28c-.24,0-.48.13-.56.35-.04.15,0,.33.11.43.26.22.67.17.87-.11.04-.06.07-.13.07-.19,0-.26-.22-.48-.48-.48Z" fill="#fff0df"/><path d="M107.71,54.7c-.26-.69-.58-1.32-1.06-1.86-1.17-1.34-2.86-1.37-4.25-.26-.72.59-1.24,1.34-1.69,2.15-.32.59-.8-.39-.58-1.76.07-.46.09-.85-.02-1.3-.11-.39-.15-.82-.09-1.24.13-.89.07-1.73-.19-2.6-.15-.41-.13-.8,0-1.21-.13-1.21-.52-2.32-.91-3.47l-.87-2.62s-.02-.19,0-.26c.02-.04.13-.09.22-.13-.33-.85-.67-1.69-1.15-2.47l.17-.22c-.52-.91-1.15-1.69-1.86-2.47-.43-.48-.85-1.04-.43-1.3-.39-.89-1.43-1.43-1.69-1.97l.09-.17s-.06-.15-.11-.17c-.46-.26-.63-.72-.98-1.06l-2.8-2.6c-.87-.8-1.89-1.37-2.97-1.82l-2.6-1.11s-.13-.17-.17-.22c-.41-.15-.85-.24-1.28-.28-.76-.04-1.32-.39-1.93-.74-.78-.46-1.65-.63-2.51-.87-1.08-.33-2.12-.5-3.23-.69-1.56-.28-3.06-.39-4.64-.37-.93,0-1.76,0-2.67.28-.74.22-1.54.41-2.32.39-.3,0-.52-.09-.85,0-.82.24-1.63.52-2.38.91-.63.33-1.24.41-1.91.61-1.78.48-3.38,1.41-4.83,2.49-.59.43-1.08.95-1.71,1.32-.19.11-.32.07-.52.11-1.04.3-1.97,1.65-2.58,2.62.17.43-.37.59-.61,1.13.11.02.2.11.17.2-.24.63-.61,1.15-1,1.69-.59.85-1.15,1.67-1.6,2.58l-1,1.97s.13.13.11.17c-.24.76-.63,1.39-.93,2.1-.13.3-.04.67-.11.98-.26,1.24-1.21,2.69-1.45,4.14-.22,1.39-.52,2.75-.56,4.16.78,1.32.11,2.23.48,4.23.46,2.45,1.06,4.83,1.84,7.17l.87,2.58c.15.63.28,1.24.54,1.82.02.87.17,1.65.33,2.51.39,2.41.98,4.72,1.8,7.02.5,1.41,1.13,2.69,1.93,3.97.87,1.37,1.54,2.77,1.89,4.36.41.61.54,1.28.61,2.02,0,.07.04.17.09.22.02,0,.13-.02.17-.02.28.22.54.56.63.93.04.26-.04.61.07.82.35.26.54.56.78.93.13.22.33.46.35.69.09.02.24.04.3.09.04.07.09.15.09.26l-.11.67c.11-.04.26-.06.33,0,.33.37.04.82.35,1.02l.3-.5.19.24c.04-.43.2-.76.52-.93.17.11.17.33.28.46.28.41.43.82.59,1.3l.61,2.02c.09.28.39.41.65.37l.48.5c.33-.41.8-.5,1.28-.24.09-.76.54-1.34,1.17-1.73.3-.19.59-.37.82-.65.24.09.39.24.61.37.13-.11.19-.24.35-.3.63.67.5,1.84,1.41,2.02h.8c.39.15.59.54.82.85l.72.09c.24-.37.56-.56.93-.76.33-.17.67-.48,1.06-.46.28,0,.41.39.56.54.22.22.41.33.59.59.04-.17.24-.35.3-.26l.46.8c.3-.37.59-.8,1.04-.87.3-.04.41.37.46.67l1-1.28s.24.07.24.13c.04.24.2.35.46.3.11.13.17.28.33.37.11-.22.17-.43.39-.5l.59.89c.13.04.19-.22.24-.3.09-.17.28.09.39.07.22,0,.67-.09.89-.15.35-.24.46-.76.69-1.06.28-.11.28.39.39.41-.07-.02.41-.07.5-.41.09,0,.17.11.22.26l.72-.8c.37.33.69.65,1.02,1.08.54-.59.85-1.65,1-1.78h.15c0,.11-.02.24.09.39.2-.52.39-1.06.74-.82l.43.33.22-.72c.37.13.56.39.89.69.15-.43.28-.78.52-1.17.02-.63.28-.56.3-.63.04-.15-.11-.41.15-.41.24.41.59.74.98,1.02,0-.35-.02-.48.09-.67.15-.3-.11-.63,0-.95.02-.09.17-.11.26-.19l.43-.41,1.17.54-.28-.65c.15-.02.35-.07.5,0l.76.39s.11-.22.17-.24c.04,0,.19.04.26.06.11-.06.2-.24.35-.17.65.24,1.08.74,1.41,1.34l1.34-1.54c.11-.13.2-.24.41-.17l.24-.52s.11-.04.15-.02c0,0,.04.07.04.11v.13c-.02.13.15.11.11,0l.56-1.32s.04-.11.09-.11.11-.04.11.04c0,.13,0,.26.04.41.61-.8.69-1.78.59-2.75l-.15-1.54-.09-1.47s.02-.11.07-.11h.09l.46,1.08.17-.52c.22.17.3.39.41.69l.39-1.26c.39-.78.74-1.56.93-2.43l.39-1.21c.28-.85-.09-2.08,0-3.01.13-.04.26.04.22-.04-.35-1.19-.09-2.62.3-1.71.07-.2.07-.46.04-.69-.11-.89.17-1.67.5-2.45.28-.63.26-1.32.28-1.99,0-.35.13-.65.24-.95.11-.35.13-.72.17-1.08l.19-1.19c0-.82-.04-1.6.09-2.43.06-.37,0-1.28.37-1.32.35-.04,1.11,1.19,1.41,1.8.26.52.17,1.04-.04,1.56l-.37.85c-.19.43.58.87.78,1.76.43-.19.82-.48,1.28-.54.67-.11,1.32.17,1.5.82l.26,1.02c.22.09.43.13.58.3.13.13.06.41-.04.54-.09.09-.28.26-.43.17-1.06-.56-1.34-1.69-2.27-1.52-.28.04-.61.15-.82.35-.63.61-1.1,1.32-1.49,2.12l.13,1.54-.22,1.91c-.06.61.13,1.19.28,1.78l1.08.32c2.19.3,4.05-1.15,4.55-3.38.69-2.99,1.17-5.98,1.47-9.06.28-2.75-.06-5.5-1.04-8.08l.02.04ZM74.44,76.33c.11.06.3.28.15.46-.67.78-1.63.8-2.56.32.35-.3.76-.32,1.17-.35.63,0,.87-.67,1.24-.43ZM74.14,70.61c1.56-1.69,3.55-1.3,3.38-.52-.02.11-.15.24-.28.26-.8.04-1.06.74-1.8.93h-.69c-.3,0-.74.59-.98.43-.33-.19,0-.67.37-1.08v-.02ZM71.28,72.52c.39.41,1.41.39,1.39.69,0,.13-.28.26-.46.26h-1.17c-.48,0-.82-.43-1.21-.72-.63.19-1.21.13-1.8-.13l-.85-.35c-.22-.09-.3-.37-.15-.56.65-.78,1.67-.85,2.54-.41.65.33,1.19.67,1.71,1.19v.02ZM60.31,60.68l-.52.17c-.5.15-1.11.24-1.58,0-.28-.13-.52-.37-.74-.61-.22-.3-.37-.63-.39-1.02-.17.11-.33.22-.46.35-.22.26-.5.59-.48.91,0,.11.13.2.24.22l.56.15.33.09s.07.07.07.09c0,.09-.37.22-.56.26l-.74.22c-.26.06-.52.19-.65.41-.06.11-.13.19-.22.28-.37.39-.87.61-1.41.54-.26-.04-.5-.13-.69-.3-.19-.2-.24-.48-.15-.76.26-.82.91-1.71,1.5-2.36l.54-.54c1.24-1.11,2.54-1.63,4.07-2.17l.78-.24,1.08-.28.56-.09c.35-.06.67-.09,1.02-.06l.69.11c.22.02.39.09.61.15.46.15.91.33,1.34.52-.04-.13-.13-.2-.22-.28-.61-.65-1.37-.93-2.23-1.08l-1.21-.2c-.48-.09-.91-.11-1.39-.13l-.67-.04h-.93l-.35.04-.39.06c-.67.11-1.3.35-1.93.61-.65.28-1.28.63-1.86,1.02l-.52.37c-.39.28-.74.59-1.11.91l-.43.43c-.39.39-.74.8-1.08,1.21l-.37.46h-.17s-.04.02-.07.02c-.09-.02-.04-.48,0-.69.13-1.17.48-2.21,1.13-3.21.28-.46.63-.85.98-1.24l.39-.39c.59-.54,1.24-1.02,1.97-1.39.65-.33,1.32-.5,2.04-.56l.8-.09h.3c.33-.07.65-.09,1-.09h.63l.54-.02h.95l.22-.02h.19l1.08-.02h.98l.33.02c.72.04,1.43.26,2.1.52,0-.07-.02-.09-.04-.13.02-.11.13-.11.22-.09l.52.15c.24.07.37.26.5.48,0,0,.04-.07.06-.07.17,0,.26.3.37.39.22.17.41.37.63.56.72.72,1,1.58,1.13,2.58.04.26.07.5.07.76v.59c0,.43-.15.89-.09,1.34.06.54,0,.93-.11,1.45-.09.43-.22.89-.15,1.32l.24,2.04c0,1.04-.24,2.04-.54,3.03-.59,1.93.85,2.77.78,2.97-.04.15-.74.13-1.02-.15-.35-.33-.59-.72-.87-1.15-.46.04-.91.15-1.3.43-.63.43-1.02,1.21-1,1.99.02.67.48,1.19,1,1.54.37.24-.35.5-1.28.07-1.04-.48-.28-2.32.19-3.42l.72-1.65c.3-.67.24-1.41-.09-2.06l-.56-1.13c-.26-.54-.3-1.15-.17-1.73,0-.06.02-.13.04-.2.13-.48.22-.95.35-1.43.11-.41.37-.85.33-1.3-.04-.46-.39-.82-.85-.76-.02,0-.02.07-.04.09-.04.04-.13,0-.17-.04-.09-.02-.19,0-.3,0-.5.04-.95.13-1.45.22l-.52.09s-.09,0-.11-.04c.19-.13.39-.26.63-.37l.59-.26c.24-.11.5-.2.74-.35-.78-.39-1.65-.72-2.54-.8.22.67.11,1.41-.35,1.97-.28.35-.61.48-1.06.63l.02.17ZM86.23,75.92c.28.67.06,1.06-.09.98l-.82-.59c0,.11,0,.3-.09.35-.11,0-.22-.17-.35-.19l.24.67c0,.22-.11.39.11.59l-.3.19c.26.26.54.61.59.98-.13.09-.2.3-.24.46-.28.11-.3.35-.37.61-.5,2.06-2.04,3.71-4.01,4.44l-1.71.65s.11.11.13.15c0,.02-.04.09-.09.11l-1.6,1.02-1.13.72-.91.72c-.15-.09-.33-.15-.5-.09-.48.2-.95.15-1.47.11-.17,0-.33.13-.46-.04-.09-.11-.19-.22-.22-.43-.78.24-1.89-.22-1.78-.65.07-.33.37-.61.72-.67l3.64-.74c1.5-.3,3.25-.72,4.2-1.95.19-.24.32-.59.3-.89-.04-.5-.39-.91-.82-1.15-.89-.5-2.45-.8-3.38-.48-1,.35-1.99.46-3.06.61-1.11.15-2.1.67-2.9,1.39-1.21,1.06-.24,2.25-.37,2.54-.24.48-.69.54-1.17.59-.24,0-.46.13-.63-.13-.24-.3-.56.28-1.24-.09l-.76-.43v-.22c-.04-.07-.15-.13-.24-.13-.52-.09-.35-.56-.41-.69-.07-.11-.3,0-.37-.11-.09-.17.15-.5.46-.76-.33-.35-.91.13-1.28-.43-.2-.28-.17-.54.02-.87l-.33-.04s-.28-.28-.37-.54l-.46.74s-.11-.11-.15-.22l-.72,1.39s-.19.07-.26.02c-.33-.26-.24-1-.17-1.63l-.35.35c-.13-.39-.09-.76.09-1.08-.15-.74.2-1.47.69-1.99-.07-.28,0-.46.22-.67.43-.48.87-.89,1.37-1.3l1.58-1.3c.76-.63,1.52-1.13,2.45-1.45.93-.33,2.12-.46,2.02.07-.04.17-.37.26-.43.41-.17.37-.39.65-.72.91-.48.37-.8.91-.72,1.54l.3-.06c.09.28-.02.52-.26.72l-.65.56s-.15.11-.24.13c-.09,0-.17-.07-.26-.2-.22.39-.48.74-.85,1.02-.22.17-.46.33-.61.61.98-.22,1.78-.67,2.64-1.04.5-.22.95-.48,1.52-.52l-1.54,1.5c-.28.28-.63.48-.8.89,1.41-.91,2.97-1.89,4.64-1.76l1.45.28c.37.07.65.04.95-.15.76-.48,1.5-.91,2.36-1.19.93-.3,1.93-.41,2.9-.35l1.82.13c-.87-.43-1.73-.63-2.71-.95.56-.17,1.15-.19,1.73-.11l2.56.3c.24.02.46.07.69-.11l-.28-.39c.13,0,.26,0,.3-.11-.37-.39-.8-.5-1.21-.65l-.54-.37s-.11.22-.15.19l-1.06-.72c0,.2-.04.43-.17.41-.33,0-.56-.3-.82-.43l-.32.24c-.11.09-.33-.02-.46-.13l-.67-.54c-.06.2-.02.33-.02.5l-.17.13c.07.2,0,.37-.11.5-.13.17-.35.22-.59.15-.15-.04-.17.15,0,.13.07,0,.11.02.13.04.02,0,0,.11-.06.13-.33.11-.59-.13-.82-.37-.07.11-.11.22-.17.26-.09.04-.17-.04-.26-.11,0,.15.04.22-.02.3-.04.07-.15.11-.26.04-.04.06-.07.15-.09.24-.43.13-.74-.09-.98-.41-.5-.67-.41-1.34-.13-1.47.09-.04.22,0,.3.07l.43.33.17-.35.39.22c.04-.15,0-.2-.02-.28,0-.07.11-.11.17-.13-.17-.19-.3-.33-.33-.59.46-.37.5-.17.63-.17.04,0,0-.15,0-.19.11-.13.35-.11.48,0,.04-.13,0-.17-.04-.3.13.11.28-.09.39-.09.28,0,.61-.04.82-.15l.22.04s.04-.09.02-.15c.26-.15.52-.13.82-.17l.69-.06,3.23.48c1.21.28,2.25.95,3.19,1.76,0,.22.11.37.22.52.37.61.65.82.15.72l-.06-.04ZM89.35,54.51c-.15,0-.3-.06-.43-.13-.39-.17-.78-.3-1.21-.26l-.98.17-.91.17s-.13,0-.2-.04c.07-.09.17-.13.26-.17l.41-.28.5-.37c-.11-.11-.24-.15-.37-.24-.26-.15-.54-.3-.82-.41,0,.41-.07.8-.26,1.13-.37.65-.82.8-1.54.95-.28.06-.56.09-.87.11h-.59c-.17,0-.35-.07-.5-.13-.74-.35-1.06-1.06-1-1.86l-.87.5-.65.46-.33.26-.35.3v.04s.02.02.04.02l.37.06.85.07.63.09s0,.06-.04.06c-.17.06-.35.11-.52.15l-1.43.33c-.37.09-.72.17-1.06.33l-.43.17c-.13.04-.24.04-.37,0-.24-.11-.22-.46-.11-.56l.76-.76c.59-.59,1.19-1.13,1.89-1.6l.65-.41.69-.35c.37-.19.76-.3,1.17-.41.59-.17,1.15-.26,1.73-.3.33,0,.63-.02.98,0l.78.09c.54.04,1.56.3,2.06.52l.67.28.33.15c.35.17.67.37,1,.61.17.13.33.26.48.41.11.13.19.3.17.48-.02.26-.33.41-.61.39h.02ZM77.3,53.23c.15-.22.28-.41.39-.65.26-.65,1.02-1.04,1.67-1.26.43-.13.87-.24,1.32-.3l.95-.13.41-.04h.56l.72-.02c.35,0,.89.07,1.24.22l-.26.04-1.15.11c-.78.11-1.56.28-2.3.56l-.52.19c-.69.26-1.34.65-1.95,1.08l-1.02.74s-.11.06-.17.09c-.07,0-.11-.02-.13-.06-.13-.13.09-.39.24-.61v.04ZM90.05,48.76c-.15,0-.28-.04-.41-.07l-1.06-.22-1.71-.26-.37-.04h-.26l-.24-.02h-.82c-.74.04-1.6.2-2.25.5l-1.15.59-.65.35-1.8.95-1.04.59c-.65.37-1.28.72-1.97,1.04l-.69.3c-.22.09-.43.13-.67.15-.43.02-.85-.17-1.06-.56-.19-.15-.3-.35-.35-.59,0-.06.02-.13.07-.17.07-.07.13-.04.22-.04l.26.11c-.11-.22-.17-.46-.13-.69.04-.24.15-.46.33-.65l.5-.5s.13-.2.24-.22c.09,0,.13.24.19.11.15-.26.41-.46.72-.5.07,0,0,.19-.07.32.04,0,.09,0,.11-.04.28-.2.59-.35.89-.48l.95-.43,1.28-.59,1.28-.59,1.3-.56,1.24-.43.78-.15h.8c1.02.15,2.67.46,3.58.87l.56.26c.43.2.8.46,1.17.76l.43.43s.11.15.13.24c0,.13-.11.24-.24.24h-.07ZM106.41,58.97c-.61-1.19-1.21-2.3-2.17-3.16-.3-.28-.63-.43-1.13-.3.26-.54.65-1.02,1.17-1.37.39-.26.89-.17,1.19.15,1.04,1.11,1,3.06.93,4.68Z" fill="#fff0df"/><path d="M83.18,52.71c-.15.09-.28.22-.26.41,0,.15.11.28.24.35.24.13.56.04.72-.2.06-.11.09-.24,0-.35-.13-.26-.46-.37-.72-.22h.02Z" fill="#fff0df"/><path d="M42.8,77.41c.61,1.95,2.23,4.12,2.17,4.72-.11.93,0,1.82.54,2.6,1.04,1.56,2.88,1.5,4.42.35l-1.11-2.97c-.26-.67-.41-1.34-.5-2.06-.04-.37-.09-.69-.28-1.02-.56-.98-1.28-.35-1.5-.48-.39-.24-.54-.74-.39-1.19.15-.41.46-.72.74-1.04-.02-.3-.15-.59-.33-.82-.74-1.06,0-1.99,0-2.62-.04-.98-.39-1.86-.89-2.69-.33-.56-.43-1.15-.33-1.82.09-.46,0-.91-.17-1.32l-.3-.78c-.11-.28.02-.54.26-.74-.26-.24-.59-.35-.91-.46-1.13-.35-2.25.22-2.67,1.3-.69,1.82-.65,5.14-.07,7.07l1.24,3.94.06.02ZM46.62,79.82c0,.22-.09.54-.37.54-.69,0-1.76-1.63-2.12-2.47-.11-.26-.26-.54-.13-.82l1.08,1.41c.78,1.02,1.54.82,1.54,1.37v-.02ZM43.78,67.7c.39.37.89.69,1.15,1.19.2.39.02.95-.13,1.34-.72,1.71-1.04,3.4-1.04,5.35-.56-1.02-.54-2.1-.56-3.14.13-.69-.04-1.3-.24-1.97-.39-1.41.41-3.16.8-2.77h.02Z" fill="#fff3e1"/><path d="M124.81,154.61l2.36-7.93,5.33-16.69c.8-2.54,1.71-5.07,2.71-7.54,1.06-2.62,2.1-4.81,3.58-6.91.78-1.1,1.8-1.93,3.14-2.23.09,0,.11-.07.02-.13l-.39-.26s-.19-.13-.3-.17l-.58-.26-2.64-1.1c-.93-.39-1.89-.76-2.86-1.08l-15.47-5.22-4.6-1.3c-.24-.07-.52-.17-.76-.09-.11.04-.13.17-.11.28.13.39.13.78.02,1.17l-.45,1.58-9.21,24.6-5.14,14.17-5.22,14.74-5.09,14.8,29.76-.28,2.23-7.67,3.66-12.51.02.04Z" fill="#fff"/><path d="M116.92,132.2c.17,0,.35-.11.39-.28s-.09-.35-.26-.37c-.17-.02-.33.11-.35.28-.02.17.04.35.22.37ZM115.71,130.96c.15.07.72.37.82.46-.04-.07-.15-.22-.22-.3-.07-.09-.15-.19-.22-.28-.07-.09-.11-.15-.15-.26-.02-.07-.07-.13-.11-.2,0,0-.02-.04-.04-.04-.07-.07-.17-.07-.26,0-.11.07-.15.22-.13.35.02.2.15.26.3.32v-.04ZM107.19,135.13c.04.11.09.43.13.84l.85,9.01.5.07s3.81-6.67,4.77-8.3c.15-.26.33-.54.54-.76.11-.13.24-.22.39-.3.07-.04.15-.07.22-.07l.06-.22-1.88-.26-.07.22c.13,0,.28.07.37.17.11.11.15.32.13.52-.02.22-.09.41-.19.63-.04.09-.09.19-.15.28-.56.97-3.73,6.33-3.73,6.33,0,0-.61-7.48-.63-7.74-.02-.26.09-.48.22-.56.15-.11.28-.11.41-.09l.06-.22-2.51-.35-.06.22c.15,0,.43.2.54.56h.04ZM116.34,130.47s.09.11.11.15c.04.04.07.11.11.15,0,.02.04.07.04.09.07.11.13.24.15.32h.02c0-.17-.06-.56-.06-.74,0-.24,0-.39-.13-.5-.13-.11-.3-.09-.39.07-.04.09-.04.22,0,.3.02.04.07.09.11.13l.04.02ZM115.84,133.65c.19-.09.28-.24.39-.48.09-.2.28-.56.35-.71-.06.06-.15.17-.26.28-.04.02-.07.07-.09.09-.06.04-.11.09-.19.13-.06.04-.15.09-.22.11-.07.02-.13.07-.17.11-.13.09-.17.19-.17.32,0,.17.17.26.37.2v-.04ZM116.4,134.87s.54-.54.63-.8c.13-.35,0-.54-.07-1-.04-.28-.06-.48-.06-.54v-.02h-.02c-.02.06-.11.26-.24.52-.24.43-.46.63-.5,1-.02.28.22.76.26.85h.02-.02ZM114.97,132.11c.28.09.52-.07,1-.17.28-.07.46-.11.5-.11v-.04s-.17-.11-.43-.24c-.41-.22-.54-.39-.82-.35-.22.04-.67.32-.8.39v.02c.07.09.3.46.54.52l.02-.02ZM116.1,132.42c.13-.09.28-.2.35-.24v-.02c-.13.04-.85.2-1.04.24s-.37.09-.5.28c-.09.13-.09.28,0,.37.07.07.2.09.28.04.02,0,.04-.02.07-.04.07-.04.13-.11.19-.17.09-.09.15-.15.26-.22.11-.07.26-.15.37-.22l.02-.02ZM118.16,131.81c-.28.04-.48.09-.54.09,0,0-.02,0-.02.02v.02c.06.02.24.11.48.24.39.24.54.43.87.43.24,0,.67-.24.76-.3v-.02c-.07-.09-.39-.46-.61-.56-.3-.13-.5-.04-.95.04l.02.04ZM117.59,133.13s-.09-.11-.11-.17c0-.02-.04-.06-.07-.11-.07-.11-.15-.26-.19-.33h-.02c.02.17.09.56.09.76,0,.26,0,.39.13.54.13.13.33.11.41-.07.07-.11.07-.24,0-.35-.02-.04-.07-.09-.11-.13-.04-.04-.09-.11-.13-.15ZM118.14,133.2s.04.15.09.19c0,0,.02.04.04.04.07.07.19.07.28.04.13-.07.22-.19.19-.32-.02-.2-.17-.28-.32-.37-.17-.09-.74-.39-.89-.48,0,0-.02,0,0,.02.07.07.19.22.26.3.06.09.15.2.22.28.07.09.09.17.13.26v.02ZM125.03,136.79l-4.16,6-1.24-6.72-1.8-.24-.07.24c.24.09.35.22.46.41.17.37.04.87-.07,1.32l-.06.24-1.62,6.54c-.04.15-.07.24-.13.41-.13.37-.43.59-.71.67-.11.02-.19.04-.28.04l-.06.22,1.95.24.07-.22s-.09-.02-.13-.04c-.24-.15-.41-.41-.37-.8,0-.15.04-.24.09-.41l1.69-6.81,1.26,6.61.3.04,4.42-6.37-1.8,7.2c-.11.46-.3,1.02-.74,1.13-.11.02-.22.04-.28.04l-.07.22,2.45.3.07-.22c-.15,0-.32-.13-.39-.26-.09-.15-.11-.35-.09-.56,0-.15.06-.33.09-.48l1.62-6.54.07-.24c.06-.28.13-.59.26-.87.11-.19.22-.39.41-.5.11-.07.28-.15.39-.13l.07-.22-1.65-.22.07-.04ZM117.09,131.25l.02.02h.02c.02-.07.13-.26.28-.54.26-.46.48-.65.48-1,0-.26-.22-.67-.28-.76h-.02c-.09.09-.54.54-.65.78-.13.3,0,.52.04.95.04.26.04.48.04.54h.07ZM114.58,145.38c-.09-.15-.11-.37-.09-.56,0-.15.06-.32.09-.48l1.82-7.15c.04-.17.09-.33.15-.5.09-.2.19-.39.37-.52.13-.11.28-.17.43-.15l.07-.24-2.4-.32-.07.24c.15.02.28.11.35.24.09.15.11.37.09.59,0,.17-.07.32-.11.5l-1.82,7.22c-.04.15-.09.32-.15.48-.09.19-.19.37-.35.5-.13.09-.28.15-.43.13l-.07.24,2.38.3.07-.22c-.15-.02-.26-.13-.32-.26v-.02ZM118.35,131.14s-.22.13-.3.19c-.11.07-.28.17-.37.24v.02c.17-.04.8-.13.97-.15.17,0,.33-.04.41-.22.07-.13.04-.28-.07-.39-.07-.07-.17-.11-.26-.09,0,0-.04,0-.06.02-.07.04-.11.09-.15.15-.07.09-.13.13-.22.19l.04.02ZM117.46,131.27c.07-.07.19-.2.3-.28.04-.02.07-.06.09-.09.07-.04.11-.09.17-.13.07-.04.11-.07.17-.11.04-.02.09-.04.13-.09.09-.07.13-.17.11-.3,0-.17-.15-.3-.33-.24-.15.07-.22.19-.32.46-.09.19-.3.58-.39.74l.06.04ZM121.82,148.69s-.15-.09-.26-.11c-.11-.02-.19,0-.3.04-.09.04-.17.11-.24.17-.06.07-.13.2-.15.33-.02.13-.02.24,0,.32.02.09.07.17.15.24.07.07.15.09.26.11.11,0,.19,0,.3-.04.09-.04.17-.11.24-.17.07-.09.13-.19.15-.32.02-.13.04-.24,0-.35-.02-.09-.07-.17-.15-.24v.02ZM121.71,149.23s-.04.15-.09.22c-.04.07-.09.09-.13.13-.04.02-.11.04-.17.02-.07,0-.11-.02-.15-.07-.04-.04-.07-.09-.07-.15v-.22c0-.09.04-.15.09-.22.04-.07.09-.09.13-.13.04-.02.11-.04.17-.02.06,0,.11.02.15.07.04.04.07.09.07.15v.22ZM117.96,149.36l.8.11.04-.2-.56-.06.07-.3.52.07.04-.19-.52-.07.07-.28.56.06.04-.19-.8-.11-.28,1.17h.02ZM114.67,148.54s.04-.11.07-.2h-.19s-.04.09-.07.13c0,0,0,.02-.02.04l-.15-.26.09-.04s.06-.04.11-.07c.02-.02.06-.04.06-.09,0-.02.04-.07.04-.11v-.15s-.04-.09-.09-.11c-.04-.02-.09-.04-.15-.07h-.17s-.11.04-.13.09c-.04.04-.06.09-.06.15v.13s.02.09.04.13c-.04.02-.09.04-.13.07-.04.02-.06.07-.11.09-.02.04-.04.07-.07.13v.17s.07.11.11.13c.04.04.11.07.19.07h.17c.07,0,.11-.02.15-.07l.04.09h.24l-.13-.19.02-.02s.06-.09.11-.15l.02.11ZM114.23,148.67h-.13s-.06,0-.09-.02c-.02,0-.04-.04-.04-.07v-.09s.02-.06.04-.09c.02,0,.04-.04.09-.07l.17.28h-.04v.04ZM114.21,148.13s-.02-.07-.04-.09v-.09s0-.04.02-.07c0,0,.02-.02.04-.04h.07s.06,0,.06.04v.07s0,.04-.02.04c0,0-.02.02-.04.04l-.04.02-.06.04.02.02ZM117.46,148.15s-.17-.09-.28-.11h-.17l-.13-.04h-.11l-.28,1.17h.11l.13.02h.17c.11.04.22.02.32,0,.09-.04.17-.09.24-.17.07-.09.11-.19.15-.3.02-.13.02-.24,0-.32-.02-.09-.06-.17-.15-.24ZM117.38,148.67s-.04.15-.09.22c-.04.04-.09.09-.15.11-.07,0-.13.02-.19,0h-.15l.17-.78h.15s.13.04.17.09c.04.04.06.09.09.13v.24ZM118.74,147.87l-.17.24h.17l.24-.19h-.22l-.02-.04ZM119.69,148.76s.09-.09.13-.13c.04-.02.11-.04.17-.02.04,0,.07,0,.09.02.02,0,.04.02.07.04,0,0,.02.04.04.06v.09h.24v-.15s-.04-.11-.09-.15-.09-.09-.13-.11c-.04-.02-.11-.04-.17-.04-.11,0-.19,0-.3.04-.09.04-.17.11-.24.17-.07.09-.11.2-.15.32-.02.13-.04.24,0,.32.04.09.07.17.15.24.07.07.15.09.26.11h.19c.06,0,.13-.04.17-.06.04-.04.11-.07.13-.13.04-.04.06-.11.09-.15h-.24s-.02.02-.04.04c0,.02-.04.04-.07.07-.02,0-.07.02-.09.02h-.09c-.06,0-.11-.02-.15-.07-.04-.04-.06-.09-.06-.15v-.22c0-.09.04-.15.09-.22v.04ZM103.96,147.59l.8.11.04-.2-.56-.07.07-.3.52.07.04-.2-.52-.07.07-.28.56.07.04-.2-.8-.11-.28,1.17h.02ZM123.25,148.87s-.13-.07-.22-.09l-.45-.07-.28,1.17h.24l.11-.39h.19l.11.48.26.04-.13-.5c.07-.02.13-.07.17-.11.04-.04.09-.11.11-.19v-.22c0-.07-.07-.11-.11-.15v.02ZM123.12,149.19s-.02.07-.04.09c-.02.02-.04.04-.09.04h-.3l.09-.39h.17s.09.04.11.07c.02,0,.04.04.07.07v.13ZM106.76,147.93l.8.11.04-.2-.56-.07.06-.3.52.07.04-.2-.52-.07.06-.28.56.07.04-.2-.8-.11-.28,1.17h.02ZM106,147.22s-.09.15-.13.22c-.02.04-.06.11-.09.17v-.41l-.04-.59-.26-.04.13,1.24.3.04.67-1.13-.26-.04-.32.54ZM109.77,147.3l.35.04-.24.98h.24l.24-.95.35.04.04-.2-.95-.13-.04.19.02.02ZM111.89,147.41s-.13-.07-.22-.07h-.24c-.07,0-.13.07-.2.11-.04.04-.09.11-.11.17,0,.09,0,.15.04.22s.11.11.22.15l.13.04s.09.02.11.04c.02,0,.04.04.06.06v.07s-.02.07-.04.07-.04.04-.09.04h-.11s-.09,0-.11-.04c-.02,0-.04-.04-.06-.07v-.11h-.24v.2c.02.07.07.11.13.15.06.04.15.07.24.07h.26c.06,0,.13-.07.19-.11.04-.04.09-.11.11-.17v-.13s-.02-.06-.04-.11c-.02-.02-.06-.06-.09-.09-.04-.02-.09-.04-.13-.07l-.11-.04s-.07-.02-.09-.04c-.02,0-.04-.04-.07-.06v-.07s0-.04.04-.07c0,0,.04-.02.09-.04h.11c.07,0,.11.02.13.07.02.02.04.06.04.13h.24v-.17c-.02-.07-.07-.11-.13-.15l-.09.02ZM108.97,147.59s0,.06-.02.11c0,.04,0,.09-.02.15v.04-.07s0-.09-.02-.13c0-.04,0-.07-.02-.11l-.22-.65-.26-.04-.28,1.17h.24l.13-.52s0-.07.02-.11c0-.04,0-.09.02-.15v-.09s0,.06.02.09c0,.04.02.09.04.13,0,.04.02.09.04.13l.22.58.26.04.28-1.17h-.24l-.13.54-.06.04Z" fill="#7a1f28"/><path d="M97.89,143.43c.78-2.23,4.79-13.33,5.59-15.41.8-2.08,3.25-8.62,3.86-10.27.61-1.65,3.4-9.25,4.05-10.97.67-1.69.95-3.12.91-3.38-.04-.26-1.11-.76-2.1-1.37-1-.61-1.99-1.02-1.99-1.02,0,0-.32-.93-.93-1.65-.61-.72-1.52-1.71-3.49-2.45-1.97-.74-2.9-.54-2.9-.54,0,0-.48-3.08-.61-4.03-.15-.98-.41-3.06-.41-3.06,0,0-.61,1.15-1,1.76-.39.61-.93.85-.93.85,0,0-.3.69-.43,1.15-.15.46-.48.26-.48.26,0,0-.93,1.32-1.3,1.84-.37.52-.82.52-.82.52,0,0-.72,1.08-1.21,1.65-.48.54-1.08.56-1.08.56-.09.56-1.06,1.3-1.99,1.95-.93.65-2.02.97-2.02.97-.89.69-2.67,1.08-2.67,1.08,0,0-.09.11-.39.33-.3.24-1.5.8-2.12.95-.63.13-1.08-.02-1.08-.02,0,0-.33.3-1,.28-.67-.02-.87-.46-.87-.46,0,0-1.34,1.04-2.06,1.56-.72.52-1.84.93-2.15.95-.3,0-.2-.52-.2-.52,0,0-.37.35-1.11.78-.76.46-1.15.13-1.15.13-.41.39-1.32.74-1.32.74,1.13.8,4.38,1.02,4.38,1.02,0,0-2.67.46-5.03.15-2.36-.3-3.97-.54-7.78-2.43-3.81-1.89-7.2-5.46-7.2-5.46-.28,0-.69,0-.63.87.07.87.5,3.21,1.15,6.18.65,2.97,2.08,7,2.08,7,0,0-3.88-2.82-5.48-4.79s-1.15-3.06-.54-4.12c.63-1.08,2.04-1.76,2.04-1.76l-.3-1.56s-.95.3-2.34,1.47c-1.65,1.39-1.8,2.32-2.08,4.68-.28,2.36-.28,7.24-.28,7.24-3.42,1.8-7.11,4.92-10.16,7.19-3.08,2.28-8.39,5.68-11.59,7.8-3.23,2.12-7.91,4.83-11.38,8.56-3.47,3.73-5.57,7.24-6.59,10.94-1.02,3.71-1.65,6.98-3.06,15.19-.78,4.57-1.39,8.06-1.78,10.27h80.71c.82-2.17,1.78-4.77,2.25-6.22.91-2.79,3.47-9.84,4.38-12.61.89-2.77,3.86-10.58,4.64-12.81ZM104.48,99.65c.95,1.21.95,2.97.65,4.59-.3,1.63-.97,3.19-1.82,4.27-.41.52-1.69,1.75-1.69,1.75.35-.56.63-1.17.89-1.88.58-1.63.48-2.86.54-3.38,0-.15,0-.3-.09-.46-.35-.65-1.08-2.82-1.43-4.49-.13-.67-.26-1.28-.35-1.82,0,0,2.12-.09,3.29,1.41Z" fill="#fff0df"/><path d="M88.9,168.85c.91-2.8,3.47-9.84,4.38-12.61.89-2.77,3.86-10.58,4.64-12.81.78-2.23,4.79-13.33,5.59-15.41.8-2.08,3.25-8.62,3.86-10.27.61-1.65,3.4-9.25,4.05-10.97.67-1.69.95-3.12.91-3.38-.04-.26-1.1-.76-2.1-1.37-.3-.19-1.34-.8-1.97-1.02.67,1.78-.3,4.6-.3,4.6l-6.57,16.97-2.84,7.76-1.02,2.77-8.45,23.21-2.75,7.61-4.1,11.14h4.44c.82-2.17,1.78-4.77,2.25-6.22h-.02Z" fill="#efbe8a"/><path d="M93.58,99.15s.17-.19.26-.28c1.86-2.04,4.12-4.83,5.35-7.26l.52-1.19c.07-.15.15-.46.15-.63,0,0,0-.46-.2-.13-.19.39-.56,1-.8,1.39-.39.61-.93.85-.93.85,0,0-.3.69-.43,1.15-.15.46-.48.26-.48.26,0,0-.93,1.32-1.3,1.84-.37.52-.82.52-.82.52,0,0-.72,1.08-1.21,1.65-.48.54-1.08.56-1.08.56-.09.56-1.06,1.3-1.99,1.95-.93.65-2.02.98-2.02.98-.89.69-2.67,1.08-2.67,1.08,0,0-.09.11-.39.32-.3.24-1.5.8-2.12.95-.63.13-1.08-.02-1.08-.02,0,0-.33.3-1,.28-.67-.02-.87-.46-.87-.46,0,0-1.34,1.04-2.06,1.56-.72.52-1.84.93-2.15.95-.3,0-.2-.52-.2-.52,0,0-.37.35-1.11.78-.76.46-1.15.13-1.15.13-.41.39-1.32.74-1.32.74,1.13.8,4.38,1.02,4.38,1.02,0,0-2.67.46-5.03.15-2.36-.3-3.97-.54-7.78-2.43-3.81-1.89-7.2-5.46-7.2-5.46-.28,0-.69,0-.63.87.07.87.5,3.21,1.15,6.18.65,2.97,2.08,7,2.08,7,0,0,5.05,3.71,9.77,6.42,4.72,2.71,5.7,2.73,6.78,3.38,1.08.63,1.43.61,1.97,2.23.52,1.54,1.06,3.08,1.58,4.6.28.8,1.04,4.88,2.21,4.72.52-.07.69-1.06.85-1.49.22-.69.33-1.37.46-2.08.15-.82.67-1.8.52-2.64-.07-.39-.24-.69-.59-.91-.41-.24-.8-.02-1.17-.24-.37-.22-.67-.5-.89-.87l-1.54-2.62c-.26-.46-.65-.85-1.11-1.1l-1.99-1.17c-2.6-1.41-5.07-2.95-7.39-4.79-2.47-1.97-4.64-4.31-5.76-7.28-.37-.95-.76-2.41.11-2.75.37-.15.8-.11,1.17.09l3.25,1.65,1.5.8c1,.54,2.04,1.06,3.08,1.54,1.17.52,2.32.97,3.55.8.63-.09,1.19-.56,1.21-1.19.02-.39,0-.76.22-1.08.28-.39.72-.69,1.21-.84,3.32-1.02,6.87-3.08,9.71-5.14,1.97-1.43,3.75-3.03,5.4-4.81v.02Z" fill="#efbe8a"/><path d="M40.72,127.26c.5-1.3.61-2.1,1.15-1.52.54.59-1.37,8.91-2.02,17.97-.65,9.06-1.08,16.34-.82,18.33.26,1.99-2.06.61-2.12.43l-1.15-3.42,2.45-23.02,2.49-8.8.02.02Z" fill="#efbe8a"/><path d="M41.37,125.53s-.13,0-.17.09l-.87,1.52c-3.55,7.43-5.48,14.67-6.44,22.86-.35,3.01-.59,5.94-.65,8.93l-.09,3.23-.09,7.95c-1.71-5.11-3.49-10.06-5.66-14.93-1.11-2.49-2.34-4.92-3.75-7.22-.48-.78-.95-1.47-1.58-2.12-.09-.09-.28-.22-.37-.11-.09.39,0,.78.11,1.17l1.13,4.42c.93,3.36,2.04,6.59,3.21,9.88l2.93,8.37c-1.97-2.38-3.88-4.62-6.15-6.61-.87-.78-1.71-1.47-2.71-2.04-.13,0-.26-.02-.33.07-.04.07-.04.19.02.3l2.06,3.21c2.21,3.42,4.46,6.78,6.59,10.27.09.13.11.22.09.35h5.44l1.54-10.42c.63-4.25,1.17-8.47,1.63-12.74.87-7.98,2.06-16.65,3.92-24.43l.33-1.78s-.04-.17-.11-.17l-.02-.04Z" fill="#efbe8a"/><path d="M102.64,108.04c.5-1.47.67-2.62.74-3.1,0-.15,0-.3-.09-.43-.35-.65-1.39-2.75-1.73-4.44-.41-2.02-.67-3.66-.67-3.66l-.43-2.77s-.11-.37-.11.22c0,.46,0,1.02.02,1.47.09,4.66-1.11,9.23-3.62,13.16-1.43,2.21-3.29,4.07-5.37,5.7-1.43,1.11-2.88,2.02-4.42,2.93l-2.58,1.54c-.82.48-1.32,1.36-1.32,2.32v5.59c0,1.3-.93,1.43-1.67,2.19-1.97,2.06-.82,4.53-.04,6.76v.07c-3.12,1.52-4.79,3.77-5.48,7.17l-1.56-4.4-1.5-5.03-.8-2.99c-.07-.26-.2-.69-.46-.85l-1.19-.65c-4.66-2.21-9.47-4.73-13.67-7.74-1.58-1.13-3.06-2.32-4.36-3.77-.61-.69-1.02-1.47-1.45-2.28l-.46.28-.24,1.24c-.28,1.47-.52,2.99-.67,4.49-.39,3.64-.56,6.89-.09,10.25l.35,1.69s.11.15.2.15.15-.07.19-.17l.5-1.45,1.45-4.99,1.06-3.55c.06-.22.28-.39.43-.41.2-.04.46.04.61.22,1.58,1.89,3.19,3.73,4.96,5.44,2.51,2.43,5.61,4.96,8.76,6.42.09.04.19-.04.22-.09.02-.07,0-.11-.07-.2-2.17-2.67-4.31-5.31-6.35-8.15.59.04.91.41,1.37.61l2.6,1.32,2.58,1.28,2.04.98c.56.37.87.93,1.06,1.54l1.13,3.49,3.34,10.6v1.97l.46,10.21c.17,3.94.72,12.79.74,16.73,0,.35-.11.87.02,1.19.17.39,1.04-.3,1.13-.65.2-.8,0-1.82,0-2.62-.02-1-.26-6.89-.28-7.89,0-2.41-.13-4.81-.22-7.2l-.04-4.16c-.06-5.33.17-9.8,2.84-14.48l1.54-2.28s2.45-3.12,4.4-4.49c2.17-1.54,3.45-2.06,3.49-4.31.04-2.25-.59-5.79-.61-7.33-.02-1.52.22-1.91,1.15-2.43.95-.52,5.33-2.73,7.87-4.77,2.54-2.04,3.49-3.14,4.25-5.27.04-.13.09-.24.13-.35l-.04.13Z" fill="#efbe8a"/><path d="M76.55,87.01l-.91.72c-.15-.09-.33-.15-.5-.09-.48.19-.95.15-1.47.11-.17,0-.33.13-.46-.04-.09-.11-.2-.22-.22-.43-.78.24-1.89-.22-1.78-.65-.24.22-.43.61-.56,1.08-.17.67,1.15,1.02,2.19.95,1.04-.04,1.84-.35,2.12-.52.26-.17,1.06-.13,1.69-.43.65-.3,1.24-.5,1.47-.93.2-.37.63-1.02.91-1.32l-1.37.87-1.13.72v-.02ZM71.97,60.75c.11,1.24.63,2.17.56,2.47-.07.3-.48.67-.28,1.02.2.35,1.17.89,1.5,1.69.33.78.46,1.3,1.37,1.56.91.28,1.04-.46,2.02-.17.98.28,1.58.76,1.73,1.39.15.63.06.85.28.85s.61-.52.3-1.71c-.3-1.17-1.13-1.89-1.93-3.1-.8-1.21-1.02-1.71-.37-2.69.69-1.06,1.06-2.15.61-3.12-.46-1-1.82-1.52-1.63-2.15.2-.63.85-.69,1.19-.48.35.22.54.28.39-.11-.09-.19.11-.41.41-.61-.19.06-.39.09-.56.17l-.43.17h-.37c-.09-.04-.15-.11-.17-.15v-.11s0-.09.04-.13c0-.04,0-.11.04-.13l.76-.76c.59-.59,1.19-1.13,1.89-1.6l.65-.41.69-.35h.04c-.15-.07,0-.3.33-.54-.04,0-.09.02-.15.04l-.52.2c-.69.26-1.34.65-1.95,1.08l-1.02.74s-.11.06-.17.09c-.07,0-.09-.02-.11-.04h-.07c-.22-.13.24-.72.48-1.06.11-.17.13-.43.28-.59.11-.11.26-.2.41-.28.35-.28.76-.48,1.17-.61.41-.13.82-.24,1.26-.28h-.04c-.48-.2-.76-.46-.74-.78l-.56.3-1.04.59c-.65.37-1.28.72-1.97,1.04l-.69.3c-.22.09-.43.13-.67.15-.37.02-.67-.15-.89-.41-.26.24-.46.43-.54.56-.28.35.13.2.04.35-.22.37-.65.59-1.15,1.84-.5,1.26-.24,2.25-.3,2.9-.04.65-.17,1.65-.07,2.88l-.04-.02ZM64.06,64.71c.59.15.3.46.61.8.3.35.56.54.59,1.08,0,.54.24.54.28,1.24,0,.37-.15,1.06-.35,1.73l.65-1.5c.3-.67.24-1.41-.09-2.06l-.56-1.13c-.3-.61-.3-1.26-.13-1.91l.54-1.89c.11-.35.15-.76.04-1.13v-.09c-.15-.26-.46-.43-.76-.39-.02,0-.02.06-.04.09-.04.04-.13,0-.17-.04-.09-.02-.19,0-.3,0-.26.02-.5.06-.74.11.09.19-.07.43.35.35.61-.15.98-.72,1.26.02s-.46,2.28-1.54,3.45c-1.08,1.15-2.73,2.04-2.19,2.23.54.19,1.95-1.15,2.54-1.02l.02.04ZM63.89,82.01l-.33-.04s-.04-.07-.11-.15c-.13.61-.09,1.04.35,1.3.2.11.41.11.67.07-.22,0-.43-.04-.61-.3-.2-.28-.17-.54.02-.87ZM68.35,70.26c-.15-.13-.28-.28-.39-.46,0,.13.04.22.09.28.24.3.32.43.28.59-.04.11,0,.24.26.39.32,0,.67.11,1,.26.65.33,1.19.67,1.71,1.19.39.41,1.41.39,1.39.69,0,.13-.28.26-.46.26h-.43c.15.04.33.06.54.06,1.08,0,1.89-.82,2.19-1.58.11-.24.17-.48.22-.69-.28.04-.72.56-.95.43-.32-.19,0-.67.37-1.08,0,0,.02-.02.04-.04-.26.17-.56.46-.82.69-.43.39-1.65.59-2.43,0-.78-.56-1.41-1.06-1.76-1.69-.33-.63-.5-1.34-.33-2.15.2-.8.91-2.45.87-3.1-.04-.65-.37-1.21-.43-2.06-.04-.61.07-1.43-.04-2.28l-.09.59c-.09.59-.33,1.17-.24,1.78l.24,2.04c0,1.04-.24,2.04-.54,3.03-.59,1.93.85,2.77.78,2.97-.04.15-.74.13-1.02-.15l-.04.02ZM67.05,78.39s-.15.11-.24.13c-.09,0-.17-.07-.26-.2-.22.39-.48.74-.85,1.02-.22.17-.46.33-.61.61.98-.22,1.78-.67,2.64-1.04.5-.22.95-.48,1.52-.52l-1.54,1.5c-.28.28-.63.48-.8.89,1.41-.91,2.97-1.89,4.64-1.76l1.45.28c.22.04.41.04.61,0,0,0,0-.04-.02-.09-.07-.28-.09-.48-.09-.69s-.15-.22-.37-.28c-.2-.07-1.41-.56-2.62-.33-1.21.24-1.34.11-.89-.15.46-.26.91-.35,1.21-.69.33-.37.37-.46.28-.69-.09-.24-.26.22-.46.09-.2-.13.39-.46.22-.74s-.24.15-.41.24c-.17.09,0-.17-.09-.33s-.46.26-.37-.15c.09-.41.3-.8.15-.98-.41-.54-1.17-.89-2.15-1.08-.98-.2-1.82-.41-2.41-1.11-.26-.3-.39-.63-.46-.95v.22c.02.67.48,1.19,1,1.54.37.24-.35.5-1.28.07-.33-.15-.48-.41-.5-.76-.11.39-.22.85-.39,1.34-.35,1.08-1.19,2.86-1.32,3.99.24-.24.5-.48.78-.69l1.58-1.3c.76-.63,1.52-1.13,2.45-1.45.93-.33,2.12-.46,2.02.07-.04.17-.37.26-.43.41-.17.37-.39.65-.72.91-.48.37-.8.91-.72,1.54l.3-.07c.09.28-.02.52-.26.72l-.65.56.02-.07ZM60.7,55.96c-.15.09-.24.22-.28.33l.5-.13.56-.09c.15-.02.33,0,.48-.02.17,0,.37-.04.54-.02l.46.07c.69.11,1.39.37,2.15.63-.04-.07-.09-.13-.15-.2-.61-.65-1.37-.93-2.23-1.08l-1.21-.19c-.19-.04-.39-.04-.59-.07.04.07.09.13.15.17.37.24.09.33-.35.61h-.02ZM100.39,55.39c.04-.26,0-.5-.13-.74-.15-.33-.24-.95-.13-1.69.07-.46.09-.85-.02-1.3-.11-.39-.15-.82-.09-1.24.13-.89.07-1.73-.19-2.6-.15-.41-.13-.8,0-1.21-.13-1.21-.52-2.32-.91-3.47l-.87-2.62s-.02-.2,0-.26c.02-.04.13-.09.22-.13-.33-.85-.67-1.69-1.15-2.47l.17-.22c-.52-.91-1.15-1.69-1.86-2.47-.43-.48-.85-1.04-.43-1.3-.39-.89-1.43-1.43-1.69-1.97l.09-.17s-.06-.15-.11-.17c-.46-.26-.63-.72-.98-1.06l-2.8-2.6c-.87-.8-1.89-1.37-2.97-1.82l-2.6-1.11s-.13-.17-.17-.22c-.41-.15-.85-.24-1.28-.28-.76-.04-1.32-.39-1.93-.74-.78-.46-1.65-.63-2.51-.87-1.02-.3-2.02-.48-3.06-.65-1.56-.28-3.16-.41-4.77-.41-.95,0-1.8,0-2.71.28-.74.22-1.54.41-2.32.39-.3,0-.52-.09-.85,0-.82.24-1.63.52-2.38.91-.63.32-1.24.41-1.91.61-1.78.48-3.38,1.41-4.83,2.49-.59.43-1.08.95-1.71,1.32-.19.11-.32.07-.52.11-1.04.3-1.97,1.65-2.58,2.62.17.43-.37.59-.61,1.13.11.02.2.11.17.19-.24.63-.61,1.15-1,1.69-.59.85-1.15,1.67-1.6,2.58l-1,1.97s.13.13.11.17c-.24.76-.63,1.39-.93,2.1-.13.3-.04.67-.11.98-.26,1.24-1.21,2.69-1.45,4.14-.22,1.39-.52,2.75-.56,4.16.78,1.32.11,2.23.48,4.23.46,2.45,1.06,4.83,1.84,7.17l.87,2.58c.15.63.28,1.24.54,1.82.02.87.17,1.65.33,2.51.37,2.25.91,4.44,1.65,6.59.52,1.56,1.21,3.03,2.1,4.42.85,1.34,1.52,2.75,1.86,4.31.41.61.54,1.28.61,2.02,0,.06.04.17.09.22.02,0,.13-.02.17-.02.28.22.54.56.63.93.04.26-.04.61.07.82.35.26.54.56.78.93.13.22.33.46.35.69.09.02.24.04.3.09.04.07.09.15.09.26l-.11.67c.11-.04.26-.07.33,0,.33.37.04.82.35,1.02l.3-.5.19.24c.04-.43.2-.76.52-.93.19.11.17.39.3.52.13.13.26.28.33.48l.85,2.8c.09.28.39.41.65.37l.48.5c.33-.41.8-.5,1.28-.24.04-.41.22-.78.46-1.08-.22.09-.48.17-.69.26-.48.24-.87-.26-.91-.61-.04-.35-.28-.33-.46-.72-.17-.39,0-1.13-.19-2.12-.22-.98-.54-1.43-.69-1.82-.15-.39-.22-.85-1.02-1.32-.8-.5-1.76-1.13-2.41-2.9-.65-1.78-.76-3.4-.89-4.64-.13-1.24-.91-2.95-1.5-4.2-.59-1.26-1.11-2.21-1.34-3.53s-.39-1.76-.43-2.32c-.04-.54.35-1.5,1.02-2.28.65-.78,1.28-1.45,2.1-1.91.8-.46.85.09,2.08-.48,1.24-.56,1.82-1.02,2.06-1.52,0,0-.85.15-1.28,0-.43-.15-.8-.8-.93-.93-.13-.11.07-.24.41-.43.24-.15.95-.46,1.34-.61h-.11c-.06-.02-.11-.07-.15-.11-.22.04-.52.11-.8.17v.04h.04s.06.09.06.11c0,.09-.37.22-.56.26l-.74.22c-.26.06-.52.19-.65.41-.06.11-.13.2-.22.28-.37.39-.87.61-1.41.54-.26-.04-.5-.13-.69-.3-.2-.2-.24-.48-.15-.76.26-.82.91-1.71,1.5-2.36l.52-.52c-.37-.11-.78-.35-.82-.95-.04-.48.28-1.06.61-1.54-.24.15-.5.26-.74.41l-.52.37c-.39.28-.74.59-1.11.91l-.43.43c-.39.39-.74.8-1.08,1.21l-.37.46h-.17s-.04.02-.06.02c-.09-.02-.04-.48,0-.69,0-.17.09-.33.11-.48.02-.39.13-.78.24-1.15.39-1.21,1.08-2.25,2.02-3.08-.24-.13-.43-.28-.61-.46-1-1.13-.85-2.19-.39-3.36s.85-1.37.46-2.15c-.39-.78-1.04-1.5-1.08-2.99-.04-1.5.8-2.93.52-3.71-.28-.78-.72-1.41-.39-3.21.33-1.8,1.21-3.25,1.93-3.86.72-.61,1.37-1.76,1.78-2.25.41-.5.93-1.13,1.73-1.37.8-.26,1.13-.26,1.86-.91.74-.65,2.23-1.08,3.06-1.13.85-.06.98-.11.98-.11,0,0,.78.61,2.21.02,1.43-.59,2.1-1.6,2.95-1.97,0,0-.07.09-.04.22,0,.04.09.06.2,0,.37-.28,1.26-.89,2.43-1.24.22.22.85-.07,2.08-.28,1.56-.28,5.2-.67,8.99.65,3.77,1.34,5.42,3.19,7.02,4.98,1.6,1.8,2.49,4.29,2.49,4.29,0,0-.04,1.17.61,2.49.65,1.32.87,1.28,1.52,1.89.65.61,1.56,1.69,2.19,3.6.63,1.93.91,4.66,1.32,6.67.41,2.02.82,4.2,1.24,5.92.39,1.69.37,3.77.13,6.35-.24,2.56-1.06,6.13-1,6.65.04.52.11,1.11.11,1.11,0,0-.26-.37-.32-.56,0,0-.22,1.5-.56,2.49-.35,1-.48,1.47-.3,2.32-.74.48-.63,1.71-.63,1.71,0,0-.28.26-.15.93.13.67.59,1.89.59,1.89,0,0-.8.52-.98,1.86-.15,1.34.41,2.41.41,2.41,0,0-.3,1.84-.74,2.8-.43.95-1.67,1.8-2.1,1.89-.43.09-1.45-.26-1.86-.15-.26.07-.19.37-.02.67,0,0,.11-.22.17-.22.04,0,.2.04.26.07.11-.07.19-.24.35-.17.65.24,1.08.74,1.41,1.34l1.34-1.54c.11-.13.19-.24.41-.17l.24-.52s.11-.04.15-.02c0,0,.04.07.04.11v.13c-.02.13.15.11.11,0l.56-1.32s.04-.11.09-.11.11-.04.11.04c0,.13,0,.26.04.41.61-.8.69-1.78.59-2.75l-.15-1.54-.09-1.47s.02-.11.07-.11h.09l.46,1.08.17-.52c.22.17.3.39.41.69l.39-1.26c.39-.78.74-1.56.93-2.43l.39-1.21c.28-.85-.09-2.08,0-3.01.13-.04.26.04.22-.04-.35-1.19-.09-2.62.3-1.71.07-.2.07-.46.04-.69-.11-.89.17-1.67.5-2.45.28-.63.26-1.32.28-1.99,0-.15.02-.3.06-.43.11-.37.24-.98.3-1.34l.24-1.47c0-.82-.04-1.6.09-2.43.04-.24,0-.72.11-1.04.04-.17.07-.35.02-.5-.33-1.19-.56-2.75-.58-3.84,0-.39.02-.72.06-1l-.06.02ZM88.66,51.97c-1.3-.67-2.84-1.06-4.4-1.02.11.02.24.04.33.09h-.15s.09.04.13.04c-.15,0-.3,0-.46.02,1.5.2,2.64.67,3.47,1.15l.43.2.32.15c.35.17.67.37,1,.61.17.13.32.26.48.41.11.13.17.28.17.43.2-.48-.07-1.47-1.3-2.1l-.02.02ZM79.23,81.27c-.89-.5-2.45-.8-3.38-.48-1,.35-1.99.46-3.06.61-1.11.15-2.1.67-2.9,1.39-1.21,1.06-.24,2.25-.37,2.54-.24.48-.69.54-1.17.59-.24,0-.46.13-.63-.13-.24-.3-.56.28-1.24-.09l-.76-.43v-.22s-.04-.07-.09-.09c-.02.17,0,.32.11.43.56.54,1.04.72,1.41,1,.37.28.85.24,1.17,0,.3-.24.35-.33.76-.24.33.06,1.37.26,2.36.17.13-.15.33-.28.52-.3l1.08-.22c.74-.5,1.17-1.21.61-1.08-.76.17-1.84.24-2.54-.33-.69-.56-.15-1.58.8-2.08.95-.48,1.97-.26,2.34-.26.35,0,.37-.15.76-.28.39-.13.13.24.67,0,.54-.24,1.34-.85,2.12-.41.78.41,1.08.8.89,1.47-.2.67-1.13,1.21-1.73,1.47-.61.26-1.32.33-1.54.28-.19-.04-.24.26-.54.52-.17.15-.41.32-.59.46l1.3-.26c1.5-.3,3.25-.72,4.2-1.95.19-.24.32-.59.3-.89-.04-.5-.39-.91-.82-1.15l-.06-.04ZM155.37,120.41c-.11-.41-.26-.85-.5-1.21-.26-.37-.63-.65-1.06-.8-.71-.24-1.49-.06-2.19.19-2.97,1.11-5.07,5.38-6.35,8.67-1.28,3.29-5.96,17.1-7.46,22.36-1.19,4.23-5.55,19.57-7.19,25.44h2.99c1.56-5.68,5.51-20.05,6.63-24.03,1.41-4.98,5.85-18.1,7.09-21.22,1.21-3.12,3.06-7.41,5.85-8.45.95-.35,1.67-.26,2.21,0,.04.02.11,0,.11-.06,0-.3-.04-.61-.13-.89ZM79.1,76.63c-.74-.15-1.47-.22-2.04-.09-1.3.33-.5.26-.41.56.07.22,0,.48-.26.8.91-.28,1.89-.39,2.84-.33l1.82.13c-.87-.43-1.73-.63-2.71-.95.26-.09.5-.13.76-.13ZM85.15,77.13c0,.22-.11.39.11.59l-.3.2c.17.17.37.39.48.65.22-.41.13-1.24-.39-1.67l.09.26.02-.02Z" fill="#efbe8a"/></g><path d="M81.42,152.09c1.08,0,1.97-.89,1.97-1.97s-.89-1.97-1.97-1.97-1.97.89-1.97,1.97.89,1.97,1.97,1.97ZM80.25,149.62c.17-.43.52-.69.91-.78.46-.11.89.04,1.19.41.41.48.48,1,.17,1.54-.33.58-1.06.82-1.65.52-.63-.3-.89-1-.63-1.67v-.02ZM76.03,127.84c0-1.11-.89-1.99-1.99-1.99s-1.99.89-1.99,1.99.89,1.99,1.99,1.99,1.99-.89,1.99-1.99ZM72.86,128.36c-.19-.41-.11-.8.09-1.19.26-.54.87-.71,1.43-.54.72.22,1.13.87.89,1.6-.24.71-.89,1.04-1.58.82-.39-.13-.67-.39-.8-.69h-.02Z" fill="#efbe8a"/><path d="M79.12,0C35.5,0,0,40.42,0,90.09s35.5,90.09,79.12,90.09,79.12-40.42,79.12-90.09S122.75,0,79.12,0ZM79.12,178.12c-42.48,0-77.04-39.49-77.04-88.03S36.65,2.08,79.12,2.08s77.02,39.49,77.02,88.01-34.55,88.01-77.02,88.01v.02Z" fill="#ca902f"/></g></svg>