<?xml version="1.0" encoding="UTF-8"?><svg id="b" xmlns="http://www.w3.org/2000/svg" viewBox="0 0 149.8 118.49"><g id="c"><path d="M3.29,118.34h5.66v-1.49h-3.88v-2.17h3.55v-1.47h-3.55v-2.08h3.88v-1.49H3.29v8.71ZM17.79,113.85c-.17.52-.33,1.1-.5,1.73-.11.4-.22.84-.34,1.29-.12-.45-.24-.89-.35-1.29-.17-.65-.35-1.24-.52-1.76l-1.41-4.2h-1.97l3.05,8.71.02.02h2.32l2.99-8.71h-1.95l-1.34,4.21ZM24.99,118.34h5.66v-1.49h-3.88v-2.17h3.55v-1.47h-3.55v-2.08h3.88v-1.49h-5.66v8.71ZM40.59,113.83v.82c0,.33.04.67.04,1.04,0,.12.01.24.02.35-.07-.16-.14-.32-.22-.46-.15-.3-.28-.59-.43-.85-.13-.26-.26-.48-.39-.69l-2.77-4.42h-1.97v8.71l-.02.02h1.82v-4.77c0-.3-.04-.65-.04-1.04-.01-.21-.02-.43-.04-.65.12.24.24.47.34.67.17.35.35.65.5.93.17.28.33.54.5.82l2.51,4.01h1.97v-8.71h-1.82v4.2ZM46.01,111.12h2.64v7.22h1.8v-7.22h2.66v-1.49h-7.11v1.49ZM62.76,114.18c-.22-.2-.5-.37-.82-.52-.33-.15-.67-.26-1.06-.35l-.8-.2c-.28-.07-.52-.15-.74-.24-.22-.09-.37-.22-.5-.35-.13-.15-.2-.33-.2-.52s.07-.37.17-.52c.11-.15.28-.28.5-.37.22-.09.48-.13.78-.13.46,0,.8.11,1.08.3.28.2.43.48.46.85h1.71c0-.52-.15-1-.41-1.39-.26-.39-.65-.71-1.13-.93-.48-.22-1.06-.33-1.69-.33s-1.19.11-1.69.33c-.5.24-.89.54-1.17.93-.28.39-.43.87-.43,1.39,0,.65.22,1.15.63,1.54.41.39,1.02.67,1.78.84l.95.24c.33.09.61.17.82.26.22.09.39.22.5.35.11.13.17.3.17.5,0,.22-.07.41-.2.59-.13.17-.33.3-.56.39-.24.09-.5.13-.84.13s-.63-.04-.89-.15c-.26-.09-.46-.26-.61-.45-.15-.22-.26-.46-.26-.76h-1.73c.02.61.17,1.13.46,1.56.28.43.69.76,1.21.97.52.22,1.13.33,1.84.33h.02c.72,0,1.32-.11,1.82-.33.5-.22.89-.52,1.15-.91.28-.39.41-.85.41-1.39,0-.37-.07-.67-.2-.95-.13-.28-.3-.52-.54-.72ZM82.44,116.65c.22-.32.37-.69.48-1.1.11-.43.17-.89.17-1.41h-1.45c0,.43-.07.82-.22,1.19-.04.1-.09.18-.14.28l-1.44-1.65.49-.36c.26-.2.46-.39.63-.59.17-.22.3-.43.39-.67.09-.24.13-.5.13-.76,0-.39-.11-.74-.28-1.04-.2-.3-.46-.54-.78-.74-.32-.2-.71-.28-1.19-.28s-.89.09-1.24.28c-.35.17-.63.46-.82.78-.2.33-.28.72-.28,1.13,0,.37.07.72.22,1.02.15.3.35.61.56.89.03.04.07.08.1.13-.31.23-.59.45-.82.65-.24.24-.43.48-.56.74s-.19.56-.19.91c0,.46.11.87.35,1.24.22.37.56.65,1,.87.43.22.95.32,1.56.32l-.13.02c.41,0,.8-.07,1.21-.2.41-.13.75-.32,1.07-.58l.55.62h1.84l-1.33-1.53c.04-.05.08-.1.12-.16ZM78.54,111.3c.07-.13.17-.22.3-.28s.28-.11.46-.11c.26,0,.45.07.61.22.15.15.22.33.22.52,0,.11-.04.24-.09.35-.04.13-.13.22-.22.33-.09.11-.2.2-.32.28l-.5.33s-.03-.03-.04-.05c-.17-.22-.3-.41-.39-.58-.09-.2-.13-.37-.13-.56,0-.17.04-.3.11-.43ZM80.01,116.87c-.3.15-.61.22-.93.22-.24,0-.45-.04-.65-.13-.2-.11-.35-.24-.46-.39-.11-.15-.15-.35-.15-.56,0-.24.06-.43.19-.61.13-.17.3-.35.54-.52l.11-.08,1.67,1.88c-.1.07-.21.14-.32.19ZM100.8,110.13c-.63-.35-1.39-.52-2.25-.52h-3.1v8.71h.82v.02h2.25v-.04c.87,0,1.65-.17,2.28-.52.65-.35,1.13-.84,1.47-1.49.33-.65.5-1.45.5-2.34s-.17-1.67-.52-2.32c-.35-.65-.82-1.15-1.45-1.49ZM100.71,115.57c-.2.41-.48.74-.87.93-.37.2-.85.3-1.41.3h-1.19v-5.66h1.21c.56,0,1.04.11,1.41.3.37.2.65.52.85.93s.28.93.28,1.58-.09,1.19-.28,1.6ZM111.55,106.98h-1.65l-.87,1.82h1.23l1.28-1.82ZM106.71,118.34h5.94v-1.49h-4.14v-2.17h3.84v-1.47h-3.84v-2.08h4.14v-1.5h-5.94v8.71ZM122.27,115.94c-.13.2-.26.35-.43.48-.17.13-.37.24-.59.3s-.43.11-.69.11c-.48,0-.87-.11-1.21-.33-.35-.22-.61-.54-.8-.97-.2-.43-.28-.98-.28-1.58s.09-1.13.28-1.56c.2-.43.46-.76.8-1,.35-.24.76-.35,1.21-.35.24,0,.5.04.69.11s.39.17.56.3c.15.13.3.28.41.48.11.2.19.41.24.65h1.8c-.07-.5-.2-.93-.41-1.32-.22-.37-.5-.72-.82-.98-.35-.26-.72-.48-1.15-.61-.41-.15-.89-.22-1.39-.22-.78,0-1.47.17-2.08.54-.61.37-1.1.87-1.45,1.54-.37.67-.54,1.5-.54,2.43s.17,1.73.52,2.4.84,1.19,1.45,1.54c.61.37,1.3.54,2.08.54l.07-.07c.54,0,1.04-.09,1.47-.24.43-.15.82-.39,1.15-.67.33-.28.59-.63.78-1,.2-.37.3-.76.37-1.19h-1.8c-.04.24-.13.46-.24.65ZM134.04,110c-.61-.37-1.3-.54-2.08-.54s-1.47.19-2.08.54c-.61.37-1.11.87-1.45,1.54-.37.67-.54,1.5-.54,2.43s.2,1.73.54,2.4.84,1.19,1.45,1.54c.61.37,1.3.54,2.08.54v-.02c.78,0,1.47-.17,2.08-.52.61-.37,1.11-.87,1.45-1.54.37-.67.54-1.45.54-2.4s-.2-1.76-.54-2.43c-.35-.67-.85-1.19-1.45-1.54ZM133.96,115.57c-.2.43-.46.76-.8.98-.35.22-.74.33-1.19.33v.04c-.45,0-.84-.13-1.19-.35-.35-.22-.61-.54-.8-.97-.2-.43-.28-.95-.28-1.58s.09-1.15.28-1.58c.2-.43.46-.76.8-.98.35-.24.74-.35,1.19-.35s.85.11,1.19.33.61.54.8.97c.2.43.28.95.28,1.58s-.09,1.15-.28,1.58ZM144.97,114.94s.06-.01.08-.03c.46-.22.82-.52,1.08-.95.26-.43.39-.93.39-1.49s-.13-1.06-.37-1.5c-.26-.43-.61-.76-1.08-1-.48-.24-1.04-.35-1.69-.35h-3.42v8.73h1.8v-3.12h1.43l1.64,3.1h1.97l-1.84-3.4ZM144.51,113.18c-.11.2-.28.35-.52.45-.22.11-.52.15-.87.15h-1.36v-2.67h1.34c.37,0,.65.04.89.15.22.11.41.26.52.46.11.2.17.46.17.74s-.07.52-.17.72Z" fill="#b98131"/><path d="M70.87,17.37c0,1.08.87,1.95,1.95,1.95s1.95-.87,1.95-1.95-.87-1.95-1.95-1.95-1.95.87-1.95,1.95ZM72.62,13.6c.02.09.15.13.15.13h.13c.07,0,.15-.07.15-.13.11-.39.43-1.63,1.02-3.21.97-2.67,1.95-3.81,1.56-5.85-.3-1.56-2.28-3.99-2.71-4.51-.04-.04-.13-.04-.17,0-.45.52-2.41,2.95-2.71,4.51-.39,2.02.59,3.19,1.56,5.85.59,1.6.91,2.84,1.02,3.21ZM75.07,13.71s-.01,0-.02,0c0,0,0,0,0,0h.02ZM75.05,13.71c.37-.43.98-1.19,1.5-1.78.17-.2.35-.37.48-.52.28-.3.56-.61.87-.87.3-.26.61-.52.93-.78.28-.22.54-.41.78-.67.5-.56.59-1.24.37-1.89-.33-1-1.43-1.41-2.32-.85-.89.56-1.04,1.43-1.36,2.88-.26,1.13-1.04,3.42-1.37,4.38-.02.07.09.08.13.09ZM76.48,15.07h-.02s0,.17.09.13c.95-.35,4.79-1.65,5.87-1.97,1.04-.33,2.04-.69,2.41-1.84.26-.8-.11-1.71-.82-2.12-.52-.3-1.19-.33-1.71-.02-.11.07-.22.15-.33.26-.33.3-.56.72-.8,1.08-.33.54-.63.95-1.08,1.41-.48.48-1.17,1-1.67,1.45-.58.52-1.49,1.26-1.93,1.63ZM70.59,13.71s0,0,0,0c-.01,0-.02,0-.02,0h.02ZM66.82,9.76c.33.26.63.52.93.78.3.26.59.56.87.87.13.15.3.33.48.52.52.58,1.13,1.34,1.49,1.78.04,0,.15-.02.13-.09-.33-.95-1.1-3.25-1.36-4.38-.33-1.45-.48-2.32-1.37-2.88-.89-.56-1.99-.15-2.32.85-.22.65-.13,1.32.37,1.89.24.26.5.46.78.67ZM63.24,13.23c1.08.33,4.92,1.63,5.87,1.97.09.04.09-.13.09-.13h-.02c-.43-.37-1.34-1.11-1.93-1.63-.5-.46-1.19-.98-1.67-1.45-.46-.46-.76-.87-1.08-1.41-.24-.37-.48-.78-.8-1.08-.11-.11-.22-.2-.33-.26-.52-.3-1.19-.28-1.71.02-.71.41-1.08,1.32-.82,2.12.37,1.15,1.37,1.52,2.41,1.84ZM73.04,21.14c-.02-.09-.15-.13-.15-.13h-.13c-.07,0-.15.07-.15.13-.11.39-.43,1.63-1.02,3.21-.97,2.67-1.95,3.81-1.56,5.85.3,1.56,2.28,3.99,2.71,4.51.04.04.13.04.17,0,.45-.52,2.4-2.95,2.71-4.51.39-2.02-.59-3.19-1.56-5.85-.58-1.6-.91-2.84-1.02-3.21ZM70.59,21.03c-.37.43-.97,1.19-1.49,1.78-.17.2-.35.37-.48.52-.28.3-.56.61-.87.87-.3.26-.61.52-.93.78-.28.22-.54.41-.78.67-.5.56-.59,1.24-.37,1.89.33,1,1.43,1.41,2.32.85.89-.56,1.04-1.43,1.37-2.88.26-1.13,1.04-3.42,1.36-4.38.02-.07-.09-.08-.13-.09ZM70.56,21.03s.01,0,.02,0c0,0,0,0,0,0h-.02ZM67.25,21.31c.58-.52,1.49-1.26,1.93-1.63h.02s0-.17-.09-.13c-.95.35-4.79,1.65-5.87,1.97-1.04.33-2.04.69-2.41,1.84-.26.8.11,1.71.82,2.12.52.3,1.19.33,1.71.02.11-.07.22-.15.33-.26.32-.3.56-.72.8-1.08.32-.54.63-.95,1.08-1.41.48-.48,1.17-1,1.67-1.45ZM78.82,24.98c-.32-.26-.63-.52-.93-.78-.3-.26-.58-.56-.87-.87-.13-.15-.3-.33-.48-.52-.52-.58-1.13-1.34-1.5-1.78-.04,0-.15.02-.13.09.33.95,1.11,3.25,1.37,4.38.33,1.45.48,2.32,1.36,2.88.89.56,1.99.15,2.32-.85.22-.65.13-1.32-.37-1.89-.24-.26-.5-.46-.78-.67ZM75.05,21.03s0,0,0,0c.01,0,.02,0,.02,0h-.02ZM82.42,21.53c-1.08-.33-4.92-1.63-5.87-1.97-.09-.04-.09.13-.09.13h.02c.43.37,1.34,1.11,1.93,1.63.5.46,1.19.98,1.67,1.45.46.46.76.87,1.08,1.41.24.37.48.78.8,1.08.11.11.22.2.33.26.52.3,1.19.28,1.71-.02.71-.41,1.08-1.32.82-2.12-.37-1.15-1.37-1.52-2.41-1.84ZM69.05,17.59c.09-.02.13-.15.13-.15v-.13c0-.07-.07-.15-.13-.15-.39-.11-1.62-.43-3.21-1.02-2.67-.98-3.82-1.95-5.85-1.56-1.56.3-3.99,2.28-4.51,2.71-.04.04-.04.13,0,.17.52.46,2.95,2.41,4.51,2.71,2.02.39,3.19-.59,5.85-1.56,1.6-.59,2.84-.91,3.21-1.02ZM90.18,17.28c-.52-.43-2.95-2.41-4.51-2.71-2.04-.39-3.19.59-5.85,1.56-1.58.59-2.82.91-3.21,1.02-.07,0-.13.09-.13.15v.13s.04.13.13.15c.37.11,1.6.43,3.21,1.02,2.67.98,3.84,1.95,5.85,1.56,1.56-.3,3.99-2.25,4.51-2.71.04-.04.04-.13,0-.17Z" fill="#ca902f"/><path d="M43.86,40.73c1,0,1.99.15,2.84.74,1.71,1.17,2.06,3.27,1.89,5.18-.11,1.13-.39,2.21-.8,3.25-2.32,6.02-14.48,37.36-14.48,37.36,0,0-13.2-32.59-16.23-40.03-.28-.67-.63-1.37-.8-2.08-.37-1.67.3-3.32,1.91-3.99.82-.35,1.71-.46,2.41-.46v-1.3H0v1.3c1.11,0,3.88.46,5.48,2.75.46.65,1.32,2.43,2.41,4.77l21.74,50.19h2.12c.07-.19.15-.39.22-.59.22-.54.41-1.11.63-1.65.32-.85.65-1.71.97-2.56.43-1.11.85-2.23,1.28-3.34.5-1.32,1.02-2.62,1.52-3.94.56-1.47,1.13-2.95,1.69-4.4.61-1.58,1.21-3.14,1.82-4.72.63-1.63,1.26-3.25,1.88-4.88.63-1.63,1.26-3.25,1.89-4.9.61-1.58,1.24-3.16,1.84-4.75.58-1.47,1.15-2.97,1.73-4.44.52-1.34,1.04-2.67,1.56-4.01.46-1.15.89-2.28,1.34-3.4,1.02-2.58,1.97-5.24,3.73-7.43.54-.67,1.19-1.28,1.93-1.76.74-.48,1.73-.93,2.64-.93h.26v-1.3h-14.87v1.3h.04ZM130.05,97.14v1.3h19.74v-1.3c-2.17,0-4.29-1.11-5.07-3.23-.48-1.3-.52-2.56-.52-3.94v-39.94c0-1.71-.09-3.47.39-5.14.37-1.24.93-2.32,2.08-3.14.69-.5,2.21-1.02,3.06-1.02v-1.3h-13.44l-17.36,35.46-18.96-35.46h-13.02v1.3c1.28,0,2.28.52,3.16,1.26.87.72,1.56,1.63,1.99,2.64.48,1.11.59,2.28.63,3.45.02.74.02,1.45.02,2.19v39.72c0,1.6-.09,3.36-1.06,4.7-.85,1.15-2.14,1.89-3.51,2.23-.48.11-.95.19-1.43.22h-.26v1.3h15.13v-1.3c-.58,0-1.32-.17-2.04-.39-2.02-.65-3.75-2.1-4.1-4.29-.15-.93-.17-1.54-.17-2.49v-42.3l20.15,38.64h1.04l19.35-40.61v44.12c0,1.43-.13,2.9-.71,4.23-.91,2.02-2.9,3.12-5.09,3.12v-.02ZM63.35,39.43v1.3c1.34,0,2.43.5,3.27,1.15,1.06.82,1.65,1.97,1.86,3.16.17.93.22,1.91.22,2.84v42.07c0,1.34-.04,2.75-.56,4.01-.78,1.91-2.71,3.16-4.75,3.16v1.3h18.94v-1.3c-2.04,0-3.97-1.26-4.75-3.16-.52-1.26-.56-2.67-.56-4.01v-42.07c0-.95.04-1.91.22-2.84.22-1.21.78-2.34,1.86-3.16.85-.65,1.93-1.15,3.27-1.15v-1.3h-19.03Z" fill="#7a2f4a"/></g></svg>